<?xml version="1.0" standalone="no"?>
<!DOCTYPE svg PUBLIC "-//W3C//DTD SVG 20010904//EN"
 "http://www.w3.org/TR/2001/REC-SVG-20010904/DTD/svg10.dtd">
<svg version="1.0" xmlns="http://www.w3.org/2000/svg"
 width="4928.000000pt" height="3264.000000pt" viewBox="0 0 4928.000000 3264.000000"
 preserveAspectRatio="xMidYMid meet">

<g transform="translate(0.000000,3264.000000) scale(0.100000,-0.100000)"
fill="#000000" stroke="none">
<path d="M21575 23840 c3 -5 8 -10 11 -10 2 0 4 5 4 10 0 6 -5 10 -11 10 -5 0
-7 -4 -4 -10z"/>
<path d="M21615 23770 c-10 -11 -15 -23 -12 -27 7 -6 36 25 37 40 0 11 -6 8
-25 -13z"/>
<path d="M21441 23611 c-9 -6 -6 -10 10 -14 28 -8 34 -3 16 11 -7 6 -19 7 -26
3z"/>
<path d="M21512 23580 c0 -14 2 -19 5 -12 2 6 2 18 0 25 -3 6 -5 1 -5 -13z"/>
<path d="M21460 23570 c8 -5 20 -10 25 -10 6 0 3 5 -5 10 -8 5 -19 10 -25 10
-5 0 -3 -5 5 -10z"/>
<path d="M21440 23496 c0 -9 5 -16 10 -16 6 0 10 4 10 9 0 6 -4 13 -10 16 -5
3 -10 -1 -10 -9z"/>
<path d="M21367 23493 c-3 -5 -2 -15 2 -22 7 -10 10 -10 16 -1 4 6 3 16 -3 22
-5 5 -12 6 -15 1z"/>
<path d="M21447 23410 c-5 -21 16 -45 33 -35 15 9 12 25 -5 25 -9 0 -12 6 -9
15 4 8 2 15 -4 15 -5 0 -12 -9 -15 -20z"/>
<path d="M21386 23403 c-6 -15 -8 -15 -16 -3 -5 8 -12 11 -17 7 -4 -4 -2 -16
5 -27 7 -12 8 -21 2 -25 -6 -3 -10 1 -10 9 0 23 -17 19 -23 -5 -4 -14 -11 -20
-21 -16 -18 7 -32 -9 -14 -16 9 -4 9 -8 3 -14 -5 -4 -11 -18 -13 -30 -2 -17 1
-21 12 -17 11 4 16 0 17 -12 0 -11 2 -37 5 -59 3 -22 6 -50 7 -62 2 -24 7 -26
45 -23 15 1 22 -4 22 -15 0 -21 24 -14 28 8 3 13 -4 17 -32 17 -37 0 -42 5
-27 29 5 8 14 10 22 6 9 -6 8 -10 -7 -16 -12 -5 -14 -8 -4 -8 8 0 26 9 40 20
16 14 19 19 8 15 -13 -4 -18 0 -18 14 0 12 7 20 18 21 10 0 12 3 5 6 -19 7
-16 23 5 23 14 0 15 2 2 9 -8 6 -18 7 -22 5 -4 -3 -8 1 -8 8 -1 9 -5 7 -14 -4
-16 -22 -29 -12 -15 13 5 11 7 19 3 19 -4 0 1 9 11 20 13 14 16 29 12 54 -4
28 -1 37 16 50 l22 15 -21 0 c-12 1 -25 -7 -28 -16z m-46 -89 c0 -8 -5 -12
-10 -9 -6 4 -8 11 -5 16 9 14 15 11 15 -7z m-30 -24 c0 -5 -5 -10 -11 -10 -5
0 -7 5 -4 10 3 6 8 10 11 10 2 0 4 -4 4 -10z m40 -84 c0 -3 -4 -8 -10 -11 -5
-3 -10 -1 -10 4 0 6 5 11 10 11 6 0 10 -2 10 -4z"/>
<path d="M21414 23334 c0 -13 6 -22 11 -21 16 6 17 34 2 40 -11 4 -14 -1 -13
-19z"/>
<path d="M21468 23323 c7 -3 16 -2 19 1 4 3 -2 6 -13 5 -11 0 -14 -3 -6 -6z"/>
<path d="M21412 23020 c-18 -29 -15 -36 8 -15 20 18 26 35 12 35 -4 0 -13 -9
-20 -20z"/>
<path d="M22580 20951 c0 -6 5 -13 10 -16 6 -3 10 1 10 9 0 9 -4 16 -10 16 -5
0 -10 -4 -10 -9z"/>
<path d="M22210 20730 c0 -5 5 -10 11 -10 5 0 7 5 4 10 -3 6 -8 10 -11 10 -2
0 -4 -4 -4 -10z"/>
<path d="M22322 20576 c-18 -9 -22 -16 -17 -36 4 -14 6 -36 5 -50 -1 -14 -1
-34 0 -45 0 -11 0 -39 0 -62 -1 -29 4 -43 12 -43 8 0 14 -15 16 -37 1 -20 8
-40 15 -45 6 -4 12 -20 13 -35 2 -79 10 -89 54 -67 l24 13 -27 10 c-22 9 -27
17 -27 45 0 18 7 39 15 46 8 7 15 16 15 21 0 5 -7 9 -15 9 -18 0 -20 42 -4 73
9 16 9 22 0 25 -6 2 -11 10 -11 18 0 8 -6 14 -12 14 -8 1 -5 7 6 15 16 12 17
17 6 30 -8 10 -9 15 -1 15 22 0 11 40 -13 50 -18 7 -23 14 -19 29 6 23 0 24
-35 7z"/>
<path d="M22450 20390 c-12 -7 -12 -10 3 -16 21 -8 29 -3 19 13 -5 8 -13 9
-22 3z"/>
<path d="M23085 20280 c-3 -5 -1 -10 4 -10 6 0 11 5 11 10 0 6 -2 10 -4 10 -3
0 -8 -4 -11 -10z"/>
<path d="M22470 20270 c0 -5 5 -10 11 -10 5 0 7 5 4 10 -3 6 -8 10 -11 10 -2
0 -4 -4 -4 -10z"/>
<path d="M22945 20239 c-9 -29 2 -36 20 -13 18 24 19 34 1 34 -8 0 -18 -9 -21
-21z"/>
<path d="M23017 20243 c-10 -9 -9 -23 2 -23 5 0 11 7 15 15 5 15 -5 20 -17 8z"/>
<path d="M23105 20230 c-3 -5 -1 -10 4 -10 6 0 11 5 11 10 0 6 -2 10 -4 10 -3
0 -8 -4 -11 -10z"/>
<path d="M22985 20210 c-3 -5 -1 -10 4 -10 6 0 11 5 11 10 0 6 -2 10 -4 10 -3
0 -8 -4 -11 -10z"/>
<path d="M22970 20140 c0 -5 5 -10 10 -10 6 0 10 5 10 10 0 6 -4 10 -10 10 -5
0 -10 -4 -10 -10z"/>
<path d="M23020 20133 c8 -3 18 -10 21 -16 8 -12 31 1 24 14 -4 5 -18 9 -33 8
-16 0 -21 -3 -12 -6z"/>
<path d="M22866 20085 c23 -18 40 -19 50 -3 5 8 2 9 -9 5 -9 -3 -19 -2 -22 3
-4 6 -14 10 -23 10 -13 0 -13 -2 4 -15z"/>
<path d="M22420 20040 c0 -5 5 -10 10 -10 6 0 10 5 10 10 0 6 -4 10 -10 10 -5
0 -10 -4 -10 -10z"/>
<path d="M22925 19979 c-4 -6 -5 -13 -2 -16 7 -7 27 6 27 18 0 12 -17 12 -25
-2z"/>
<path d="M22640 19920 c0 -5 5 -10 11 -10 5 0 7 5 4 10 -3 6 -8 10 -11 10 -2
0 -4 -4 -4 -10z"/>
<path d="M22935 19910 c4 -6 11 -8 16 -5 13 9 11 -9 -3 -23 -6 -6 -9 -15 -5
-18 3 -4 13 1 22 10 9 9 27 16 41 16 38 0 28 17 -13 24 -53 8 -65 8 -58 -4z"/>
<path d="M17575 19900 c-3 -5 -1 -10 4 -10 6 0 11 5 11 10 0 6 -2 10 -4 10 -3
0 -8 -4 -11 -10z"/>
<path d="M17559 19839 c-9 -17 -8 -23 2 -30 19 -12 37 -11 44 2 11 17 -3 23
-21 8 -16 -13 -17 -11 -10 14 8 32 1 35 -15 6z"/>
<path d="M22760 19830 c0 -5 7 -10 15 -10 8 0 15 5 15 10 0 6 -7 10 -15 10 -8
0 -15 -4 -15 -10z"/>
<path d="M22860 19820 c0 -11 4 -20 9 -20 5 0 7 9 4 20 -3 11 -7 20 -9 20 -2
0 -4 -9 -4 -20z"/>
<path d="M22895 19790 c3 -5 8 -10 11 -10 2 0 4 5 4 10 0 6 -5 10 -11 10 -5 0
-7 -4 -4 -10z"/>
<path d="M17617 19783 c-4 -3 3 -13 15 -21 20 -14 20 -16 3 -28 -10 -8 -17
-24 -16 -41 1 -15 2 -38 3 -50 0 -25 13 -31 21 -10 2 7 8 8 13 3 5 -5 4 -11
-3 -13 -24 -9 -12 -73 13 -73 12 0 12 -4 4 -21 -9 -16 -8 -25 6 -40 12 -13 21
-16 29 -9 9 8 14 2 19 -21 5 -24 1 -35 -16 -48 l-22 -18 22 -23 c12 -13 22
-29 22 -36 0 -6 13 -26 29 -42 19 -21 25 -34 18 -41 -7 -7 -15 -7 -22 -1 -9 7
-12 2 -11 -20 1 -16 4 -30 9 -30 4 0 7 -6 7 -14 0 -8 10 -18 21 -21 17 -6 18
-9 8 -16 -7 -4 -10 -12 -5 -16 4 -4 13 0 20 10 17 23 25 22 19 -3 -3 -11 -11
-20 -19 -20 -17 0 -37 -37 -28 -52 5 -8 2 -9 -9 -5 -13 5 -17 1 -17 -14 0 -16
4 -19 20 -14 15 5 20 2 20 -13 0 -11 -3 -22 -7 -25 -5 -2 -2 -2 5 -1 7 2 12
-7 12 -21 0 -20 5 -25 25 -25 14 0 25 -5 25 -11 0 -16 -26 -39 -44 -39 -9 0
-16 -8 -16 -20 0 -24 16 -26 29 -3 7 14 12 15 25 4 8 -7 20 -10 26 -6 5 3 10
2 10 -4 0 -5 -5 -13 -10 -16 -7 -4 -5 -14 4 -27 8 -11 12 -27 9 -34 -3 -8 0
-14 6 -14 6 0 11 8 12 18 0 9 3 12 5 5 9 -20 71 -54 88 -47 23 9 20 -3 -5 -17
-18 -9 -27 -7 -51 11 -27 20 -29 20 -19 3 15 -29 39 -46 52 -38 8 6 8 2 0 -13
-10 -19 -8 -21 34 -28 25 -3 47 -10 50 -14 3 -5 14 -6 25 -3 15 4 20 0 20 -15
0 -11 -7 -22 -15 -26 -8 -3 -15 -11 -15 -17 0 -8 7 -6 19 5 22 20 78 29 87 14
5 -7 2 -8 -6 -3 -10 6 -12 4 -7 -9 4 -10 3 -15 -3 -11 -9 6 -14 -12 -12 -45 0
-8 -5 -18 -11 -22 -8 -5 -6 -8 6 -8 9 0 17 -6 17 -14 0 -7 7 -19 15 -26 8 -7
12 -16 9 -21 -3 -5 0 -9 5 -9 6 0 11 -7 11 -16 0 -10 5 -14 15 -10 11 4 17 -3
22 -27 7 -31 7 -31 13 -7 3 14 14 26 25 28 19 3 19 2 2 -11 -19 -15 -14 -42 8
-51 8 -3 11 -14 8 -28 -4 -17 -2 -20 5 -9 9 12 13 13 27 1 12 -10 13 -15 4
-21 -20 -12 -17 -49 4 -64 14 -10 18 -21 15 -39 -3 -15 -1 -23 5 -19 5 3 6 -4
1 -18 -5 -13 -8 -39 -7 -56 0 -22 -4 -33 -13 -33 -10 0 -14 14 -14 47 0 43 -1
45 -14 27 -8 -10 -10 -20 -5 -22 5 -2 9 -13 9 -25 0 -34 15 -51 39 -44 12 3
24 1 27 -4 3 -5 0 -9 -5 -9 -6 0 -11 -4 -11 -10 0 -15 19 -12 37 5 12 12 18
13 29 4 20 -17 17 -28 -6 -22 -11 3 -20 0 -20 -6 0 -6 7 -11 15 -11 8 0 15 -5
15 -11 0 -5 4 -8 9 -4 5 3 13 0 18 -7 8 -14 9 -19 11 -57 2 -16 7 -21 16 -18
10 4 13 1 9 -9 -3 -8 1 -22 8 -31 8 -9 15 -38 15 -65 1 -53 10 -70 25 -48 8
13 10 13 19 0 6 -8 9 -26 6 -38 -3 -19 0 -23 15 -19 11 3 19 0 19 -8 0 -7 6
-18 14 -24 8 -7 20 -31 27 -55 11 -38 15 -42 30 -33 23 14 39 -1 18 -16 -17
-13 -16 -59 1 -65 5 -2 3 -10 -5 -19 -17 -17 -11 -33 12 -33 9 0 13 6 9 15 -8
23 0 18 38 -19 31 -29 33 -35 22 -52 -8 -12 -10 -27 -5 -39 4 -11 8 -15 8 -9
1 7 8 14 15 17 10 4 13 1 10 -7 -3 -7 2 -21 11 -30 9 -9 18 -24 20 -34 2 -9 4
-19 4 -21 1 -2 8 2 16 9 19 16 40 3 25 -15 -8 -10 -8 -15 1 -20 6 -4 15 -2 19
5 5 9 9 8 13 -3 3 -8 1 -19 -4 -24 -16 -16 37 -62 63 -55 16 4 20 2 15 -10 -3
-9 1 -26 10 -37 8 -12 12 -25 9 -28 -3 -4 -6 -1 -6 5 0 7 -6 12 -14 12 -8 0
-13 8 -12 18 1 11 -6 17 -19 17 -26 0 -32 -33 -8 -42 28 -11 43 -30 37 -47 -4
-11 -1 -16 10 -16 13 0 14 -3 4 -19 -9 -14 -8 -26 2 -50 14 -34 41 -44 33 -11
-3 11 0 20 6 20 6 0 11 -9 11 -20 0 -18 3 -19 21 -10 11 6 25 9 32 6 7 -2 5
-5 -4 -5 -17 -1 -29 -27 -22 -48 2 -7 10 -10 18 -7 9 4 12 0 9 -13 -3 -11 1
-25 10 -32 8 -7 12 -19 9 -27 -3 -8 1 -14 11 -14 19 0 21 -21 4 -38 -9 -9 -8
-12 5 -12 9 0 17 -5 17 -10 0 -6 11 -8 25 -4 15 4 25 2 25 -5 0 -6 -4 -11 -10
-11 -16 0 -12 -32 9 -65 10 -17 16 -40 15 -53 -2 -12 1 -22 6 -22 6 0 10 -7
10 -15 0 -8 5 -15 10 -15 6 0 10 -7 10 -16 0 -9 5 -14 12 -12 13 5 48 -26 48
-42 0 -5 5 -10 11 -10 5 0 8 -4 5 -9 -3 -5 1 -14 9 -21 12 -10 13 -14 0 -26
-16 -17 -10 -44 11 -44 19 0 63 -47 53 -57 -4 -4 -4 -15 1 -23 8 -11 12 -12
18 -3 15 23 37 -4 34 -42 -3 -24 1 -35 10 -35 8 -1 5 -6 -7 -16 -19 -15 -19
-15 10 -8 17 4 33 12 37 18 5 7 8 5 8 -4 0 -9 -5 -21 -12 -28 -19 -19 4 -37
30 -23 27 14 37 -2 16 -24 -13 -13 -14 -23 -6 -55 8 -33 7 -40 -7 -43 -11 -3
-8 -5 7 -6 16 -1 22 5 22 19 0 26 15 25 42 -2 19 -19 20 -23 6 -26 -10 -2 -14
-10 -11 -22 3 -10 -4 -27 -16 -39 -26 -26 -26 -33 -3 -30 9 1 19 0 22 -1 13
-4 54 -8 42 -3 -7 2 -17 13 -22 23 -8 15 -6 17 10 13 11 -3 20 -10 20 -15 0
-19 32 -78 40 -73 4 3 11 -6 14 -19 6 -25 35 -41 71 -39 16 1 17 1 3 -3 -10
-3 -18 -9 -18 -14 0 -5 -7 -7 -16 -3 -15 6 -15 4 0 -20 10 -14 16 -34 14 -44
-2 -12 3 -18 15 -16 15 1 17 -4 13 -23 -4 -13 -2 -24 3 -24 5 0 13 -9 16 -20
7 -21 35 -28 35 -9 0 6 6 9 13 6 6 -2 11 -11 9 -21 -2 -10 4 -16 18 -16 11 0
20 -5 20 -10 0 -6 -6 -10 -12 -9 -25 3 -38 -1 -38 -12 0 -6 9 -8 22 -4 17 6
20 4 15 -9 -4 -9 -2 -16 3 -16 6 0 10 -9 10 -21 0 -11 5 -17 10 -14 6 3 10 -1
10 -11 0 -11 6 -15 18 -12 11 3 23 -2 30 -13 16 -25 15 -32 -2 -26 -25 10 -25
-4 1 -29 13 -13 30 -24 38 -24 8 0 15 -7 15 -15 0 -8 -4 -15 -10 -15 -5 0 -10
-9 -10 -19 0 -14 5 -18 20 -14 11 3 20 9 20 14 0 5 7 9 16 9 15 0 15 -2 0 -24
-15 -24 -13 -56 5 -56 5 0 9 -9 9 -20 0 -26 7 -25 31 3 l19 22 -6 -35 c-3 -19
-7 -45 -10 -57 -3 -17 0 -21 10 -17 8 3 13 14 11 25 -2 10 0 19 6 19 5 0 9 -6
9 -14 0 -8 6 -16 13 -18 13 -5 19 -78 6 -78 -5 0 -9 -7 -9 -15 0 -8 5 -15 10
-15 6 0 10 -6 10 -12 1 -21 46 -48 84 -50 34 -3 47 -12 27 -20 -21 -7 -17 -88
5 -88 11 0 13 -6 9 -20 -4 -13 3 -29 21 -49 21 -24 32 -29 55 -24 18 3 35 0
45 -8 15 -12 14 -14 -7 -19 l-23 -6 24 -22 c21 -19 22 -24 10 -32 -12 -8 -9
-10 12 -10 20 0 26 -4 22 -15 -4 -11 -13 -13 -28 -9 -20 6 -20 5 -4 -12 11
-11 30 -17 53 -16 34 1 36 0 24 -16 -8 -9 -18 -20 -24 -25 -11 -8 21 -37 39
-36 6 0 4 5 -5 11 -15 10 -15 13 0 30 21 25 29 23 23 -7 -2 -14 1 -32 8 -40 7
-9 8 -15 2 -15 -5 0 -8 -9 -5 -19 3 -11 11 -17 18 -15 7 3 23 -4 35 -16 17
-17 29 -21 54 -16 27 5 29 4 14 -8 -19 -14 -25 -32 -8 -21 6 3 7 -1 4 -9 -4
-10 8 -28 30 -50 21 -19 32 -36 25 -38 -8 -3 -7 -8 3 -18 23 -24 37 -74 26
-94 -13 -24 -4 -30 21 -15 24 16 39 5 22 -15 -7 -8 -10 -20 -6 -26 5 -8 11 -5
20 6 11 16 13 16 20 -7 4 -13 13 -28 19 -32 7 -6 4 -7 -6 -3 -22 7 -23 -13 -3
-40 18 -24 19 -35 1 -28 -8 3 -17 1 -21 -5 -4 -7 4 -11 20 -11 18 0 29 -6 32
-19 3 -12 11 -17 19 -14 8 3 14 0 14 -6 0 -6 6 -11 14 -11 8 0 17 -7 20 -16 9
-24 8 -27 -14 -21 -11 3 -20 1 -20 -4 0 -5 6 -9 14 -9 7 0 16 -10 19 -22 5
-18 8 -20 22 -8 15 13 17 11 14 -15 -2 -21 5 -38 24 -59 15 -16 27 -33 27 -37
0 -5 7 -9 16 -9 12 0 15 -6 10 -26 -6 -21 -4 -25 8 -21 18 7 42 -18 26 -28
-14 -9 -2 -25 14 -19 22 8 31 -17 12 -32 -16 -11 -16 -13 1 -33 9 -12 28 -21
41 -21 18 0 23 -4 20 -18 -3 -10 1 -23 9 -31 8 -7 16 -26 20 -42 3 -18 11 -28
18 -25 12 4 38 -61 30 -75 -3 -3 4 -9 15 -12 11 -3 20 -10 20 -17 0 -6 -4 -8
-10 -5 -5 3 -10 1 -10 -4 0 -6 11 -11 25 -11 14 0 25 -4 25 -9 0 -5 6 -16 13
-23 32 -34 67 -97 67 -119 0 -18 8 -29 25 -37 14 -6 25 -18 25 -26 0 -8 10
-26 23 -40 50 -55 59 -69 54 -87 -6 -22 17 -75 38 -86 7 -5 15 -17 17 -28 2
-11 11 -19 21 -19 12 1 17 -6 17 -22 0 -13 4 -24 8 -24 4 0 8 -9 9 -21 1 -12
10 -27 19 -33 9 -7 14 -18 10 -24 -4 -7 -1 -12 7 -12 9 0 17 -14 21 -36 4 -19
16 -44 27 -55 12 -12 18 -23 16 -26 -3 -2 3 -13 14 -24 11 -11 17 -25 13 -30
-3 -6 5 -4 19 5 22 15 25 15 30 2 4 -9 -3 -22 -15 -30 -18 -13 -19 -17 -8 -33
8 -10 21 -24 29 -31 14 -11 14 -14 1 -22 -10 -6 -11 -10 -3 -10 15 0 48 -59
45 -80 -1 -8 1 -10 4 -4 3 7 14 10 24 7 18 -5 19 -3 9 26 -14 40 2 64 37 55
15 -4 24 -2 24 5 0 7 6 11 13 10 24 -3 38 1 33 10 -3 5 2 15 11 22 15 13 16
11 10 -11 -4 -14 -7 -33 -7 -42 0 -10 -8 -18 -17 -19 -12 0 -13 -2 -5 -6 19
-7 54 28 49 49 -5 19 1 22 27 12 20 -8 21 -34 1 -34 -8 0 -15 -4 -15 -10 0 -5
6 -10 14 -10 8 0 18 -9 21 -20 3 -11 13 -20 21 -20 8 0 14 -10 14 -25 0 -14 5
-25 10 -25 6 0 8 16 6 36 -5 38 10 74 31 74 7 0 13 5 13 11 0 6 7 8 15 5 9 -3
15 -1 14 7 -3 25 1 38 12 32 6 -4 21 3 35 16 19 18 24 19 24 7 0 -25 -11 -48
-20 -43 -22 13 -17 -16 7 -39 l26 -26 -24 -1 c-13 0 -18 -3 -11 -6 6 -2 12
-11 12 -19 0 -8 5 -14 11 -14 5 0 8 -4 5 -9 -3 -5 -15 -7 -26 -4 -11 3 -20 2
-20 -1 0 -15 30 -65 42 -69 10 -5 10 -9 -2 -19 -20 -17 -15 -88 6 -88 8 0 14
-10 14 -25 0 -14 5 -25 10 -25 6 0 10 13 10 29 0 16 7 37 16 46 13 12 14 19 4
30 -7 8 -9 15 -6 15 4 0 2 9 -4 20 -7 14 -6 30 4 59 11 34 11 41 0 45 -19 7
-18 35 2 57 15 17 15 21 0 53 -20 43 -20 49 3 70 19 17 19 18 0 37 -20 20 -23
38 -13 77 4 13 12 21 19 18 26 -10 23 6 -7 34 -26 25 -28 31 -17 52 6 13 16
26 22 29 6 4 3 16 -7 30 -20 30 -20 58 0 80 17 19 11 39 -11 39 -12 0 -12 7 0
47 9 30 11 51 5 58 -6 7 -7 15 -3 18 3 4 1 7 -6 7 -14 0 -6 36 13 60 7 8 13
26 14 40 1 17 -1 21 -7 11 -5 -7 -14 -10 -20 -7 -14 9 -15 36 -1 36 6 0 10 7
10 15 0 7 7 18 15 23 13 7 12 12 -9 31 -21 19 -23 27 -15 54 5 17 16 35 24 40
13 7 12 11 -5 29 -24 26 -26 51 -5 68 16 14 20 40 6 40 -5 0 -11 15 -15 32 -5
24 -2 36 9 44 20 15 19 39 -4 55 -15 12 -17 20 -9 47 6 24 13 32 24 28 12 -4
12 -2 4 14 -6 11 -15 20 -20 20 -11 0 -13 30 -4 54 3 9 12 16 20 16 18 0 18 9
-3 32 -24 27 -25 79 -1 86 21 5 19 27 -3 27 -9 0 -13 9 -11 23 2 12 -2 22 -8
22 -8 0 -8 6 0 20 6 11 17 20 25 20 21 0 19 16 -6 41 -25 25 -18 79 11 79 16
0 17 3 7 25 -7 14 -18 23 -24 20 -19 -7 -16 41 4 71 14 22 14 27 1 40 -18 18
-12 64 8 64 8 0 14 8 14 18 0 15 -2 15 -11 2 -8 -12 -9 -10 -4 8 4 13 1 29 -5
37 -15 19 -4 65 15 65 12 0 11 6 -4 33 -12 21 -15 39 -10 52 11 29 11 83 -1
90 -15 9 -12 35 4 35 8 0 17 7 20 16 6 16 8 16 24 0 23 -20 38 -20 46 -1 3 10
-1 15 -12 15 -29 0 -62 29 -62 55 0 19 4 22 21 18 29 -8 43 17 22 39 -9 10
-23 18 -31 18 -8 0 -12 6 -9 14 3 7 0 19 -6 26 -10 10 -7 12 10 7 16 -3 24 0
29 15 5 18 7 18 24 3 23 -21 40 -12 33 15 -3 12 -8 19 -11 16 -2 -3 -13 -1
-23 5 -13 6 -19 6 -19 0 0 -6 -11 0 -25 13 -14 13 -25 26 -25 30 0 11 70 37
81 31 8 -5 39 16 39 27 0 2 -16 4 -36 4 -24 0 -41 6 -50 18 -7 10 -19 16 -26
14 -7 -3 -17 -7 -23 -9 -5 -1 -41 -27 -79 -56 -38 -29 -78 -53 -88 -53 -20 0
-24 -16 -5 -23 7 -3 6 -6 -5 -6 -9 -1 -19 3 -22 8 -6 9 -29 -7 -78 -53 -14
-13 -35 -18 -69 -18 -27 0 -46 -4 -43 -9 3 -5 -7 -9 -23 -8 -15 1 -40 -3 -55
-9 -17 -7 -38 -8 -57 -2 -16 4 -47 6 -69 3 -23 -3 -42 -1 -46 5 -4 8 -15 8
-31 2 -15 -6 -27 -6 -30 1 -4 5 -10 7 -15 4 -5 -3 -28 -1 -51 5 -32 9 -44 9
-50 -1 -5 -9 -11 -8 -25 5 -11 11 -25 15 -40 12 -12 -3 -24 -2 -26 4 -2 5 -16
10 -33 11 -33 2 -145 37 -159 49 -5 5 -15 6 -22 3 -8 -3 -14 0 -14 6 0 6 -12
11 -26 11 -16 0 -23 4 -18 12 5 8 0 9 -14 6 -15 -4 -22 -2 -22 9 0 8 -4 12
-10 8 -5 -3 -17 6 -26 20 -11 17 -25 25 -45 25 -16 0 -29 -5 -29 -11 0 -5 -4
-8 -9 -5 -5 3 -7 16 -3 28 4 17 2 20 -11 15 -11 -4 -17 -1 -17 7 0 7 -14 16
-30 20 -17 3 -29 11 -28 17 2 7 -9 15 -24 19 -15 5 -39 22 -54 39 -14 17 -29
31 -34 31 -4 0 -22 14 -40 30 -36 33 -53 39 -43 13 4 -11 3 -14 -5 -9 -7 4
-12 13 -12 21 0 7 -7 15 -15 19 -8 3 -15 12 -15 21 0 8 -7 15 -16 15 -12 0
-15 7 -12 25 5 22 3 23 -15 13 -17 -9 -19 -8 -13 7 4 13 2 16 -9 11 -9 -3 -15
0 -15 9 0 8 -5 15 -11 15 -5 0 -8 4 -4 9 3 5 0 13 -6 17 -6 3 -15 1 -19 -5 -5
-9 -9 -9 -18 1 -5 7 -11 17 -11 23 -1 5 -7 10 -14 11 -31 3 -35 5 -40 24 -3
13 -14 20 -31 20 -24 0 -25 2 -14 25 6 14 15 25 20 25 4 0 8 5 8 11 0 7 -11 9
-29 6 -25 -5 -28 -3 -24 14 4 14 1 18 -10 13 -10 -3 -18 2 -22 17 -4 13 -10
17 -14 11 -11 -18 -53 -2 -45 17 3 9 8 25 11 36 4 15 2 17 -5 6 -8 -11 -16
-10 -46 4 -40 19 -41 22 -21 49 23 30 18 39 -10 19 -14 -10 -23 -26 -22 -38 1
-11 -2 -20 -8 -20 -5 0 -10 12 -10 26 1 21 -3 25 -22 21 -13 -2 -24 1 -24 7
-1 6 -2 15 -3 21 -1 13 -42 41 -49 34 -3 -3 -3 4 0 17 5 17 3 21 -9 16 -24 -9
-54 18 -78 68 -12 25 -26 42 -31 39 -5 -3 -9 -2 -8 3 5 26 -4 42 -26 47 -16 4
-25 13 -25 26 0 15 -6 19 -22 17 -14 -1 -22 3 -20 11 1 7 -3 23 -10 35 -7 12
-11 25 -10 30 3 12 -16 8 -22 -5 -4 -7 -4 -3 -2 10 4 24 -18 32 -28 10 -3 -7
-5 -4 -3 7 3 25 -31 65 -49 58 -19 -7 -18 11 1 27 8 7 15 17 15 23 0 7 -4 7
-12 -1 -18 -18 -30 -14 -23 8 5 15 3 18 -9 14 -15 -6 -101 74 -91 84 2 3 -7
13 -20 24 -23 18 -24 21 -11 47 13 25 13 27 -5 28 -11 1 -34 18 -51 37 -17 20
-38 36 -46 36 -10 0 -8 8 8 34 24 40 13 56 -15 20 -14 -19 -20 -22 -27 -12
-11 18 -10 30 1 23 5 -3 12 -1 15 4 3 5 -3 11 -14 14 -20 5 -28 27 -10 27 6 0
10 7 10 16 0 10 -6 14 -14 11 -8 -3 -20 1 -26 9 -7 8 -19 14 -27 14 -9 0 -13
6 -9 15 3 8 -2 18 -11 23 -12 7 -13 13 -4 30 15 28 14 32 -5 25 -20 -7 -51 26
-46 50 3 14 -1 18 -19 15 -12 -2 -24 3 -26 10 -3 6 3 12 13 12 14 0 13 3 -6
20 -13 11 -27 20 -33 20 -5 0 -7 10 -3 23 9 37 -4 68 -25 62 -13 -4 -19 -1
-19 8 0 8 -7 17 -15 21 -8 3 -15 12 -15 21 0 8 -5 15 -10 15 -6 0 -8 11 -4 25
4 16 2 25 -6 25 -6 0 -8 -4 -5 -10 3 -5 2 -10 -3 -10 -12 0 -24 29 -17 40 3 5
-4 11 -15 15 -13 4 -20 15 -20 30 0 13 -4 26 -10 30 -5 3 -6 13 -3 21 4 10 -2
17 -16 21 -11 3 -21 12 -21 19 0 8 -7 14 -15 14 -9 0 -15 9 -15 25 0 14 -4 25
-9 25 -5 0 -11 11 -13 25 -3 14 -1 25 5 25 6 0 -2 10 -16 23 -15 12 -27 31
-27 41 0 10 -8 20 -17 23 -20 5 -59 53 -44 53 6 0 8 7 5 15 -4 8 -11 15 -18
15 -6 0 -19 20 -30 45 -10 25 -32 61 -50 79 -49 52 -63 71 -59 82 3 9 -7 24
-48 72 -6 8 -24 37 -39 65 -21 38 -34 52 -49 51 -16 0 -20 4 -15 18 3 11 0 25
-6 33 -7 8 -9 24 -5 37 6 19 5 21 -6 11 -18 -18 -32 -16 -25 2 3 8 0 28 -6 43
-6 15 -11 30 -10 35 1 4 -4 7 -11 7 -18 0 -57 55 -57 80 0 11 -6 20 -13 20 -6
0 -18 13 -25 29 -7 15 -22 33 -35 39 -12 6 -16 11 -8 11 11 1 9 7 -6 24 -12
12 -23 31 -25 42 -2 11 -13 24 -25 30 -17 7 -21 16 -18 35 3 14 2 19 -1 13 -9
-19 -24 -16 -24 5 0 10 -3 22 -7 26 -5 4 -8 11 -8 14 -1 10 -58 96 -69 104 -6
4 -10 19 -11 35 0 17 -5 27 -12 26 -7 -2 -13 6 -13 17 0 11 -4 20 -9 20 -5 0
-12 12 -15 28 -11 47 -40 102 -55 102 -7 0 -11 6 -7 15 3 8 -4 21 -16 29 -11
8 -17 19 -14 25 7 11 -17 55 -47 85 -10 10 -16 24 -13 31 3 8 -2 19 -10 25 -8
7 -14 19 -14 27 0 7 -7 16 -15 19 -8 4 -15 17 -15 29 0 13 -5 27 -11 31 -6 3
-9 15 -6 25 3 11 1 19 -4 19 -5 0 -9 8 -9 18 0 11 -9 27 -20 37 -11 10 -20 28
-20 40 0 13 -7 28 -15 35 -9 7 -14 19 -11 27 3 7 -1 13 -10 13 -8 0 -14 6 -13
13 1 6 -3 25 -9 40 -7 16 -12 35 -12 44 0 9 -6 13 -14 10 -20 -8 -36 15 -29
41 4 16 1 22 -11 22 -9 0 -16 4 -16 9 0 14 -39 20 -43 7 -2 -6 -8 -7 -13 -3
-5 4 -3 11 4 16 18 11 8 92 -14 108 -20 15 -28 16 -37 6z m101 -169 c14 -15
14 -16 -3 -13 -10 2 -20 10 -23 17 -5 17 6 15 26 -4z m-28 -39 c0 -8 -4 -15
-9 -15 -5 0 -11 7 -15 15 -3 9 0 15 9 15 8 0 15 -7 15 -15z m130 -520 c0 -8
-4 -15 -8 -15 -5 0 -9 7 -9 15 0 8 4 15 9 15 4 0 8 -7 8 -15z m60 -51 c0 -8
-5 -12 -10 -9 -6 4 -8 11 -5 16 9 14 15 11 15 -7z m-30 -3 c0 -17 -18 -21 -24
-6 -3 9 0 15 9 15 8 0 15 -4 15 -9z m60 -55 c0 -3 -4 -8 -10 -11 -5 -3 -10 -1
-10 4 0 6 5 11 10 11 6 0 10 -2 10 -4z m17 -71 c0 -8 -4 -15 -9 -15 -4 0 -8 7
-8 15 0 8 4 15 8 15 5 0 9 -7 9 -15z m88 -49 c0 -11 -6 -21 -12 -23 -7 -3 -13
2 -13 11 0 11 -8 14 -34 11 -20 -3 -38 0 -42 7 -4 6 -3 8 2 5 6 -3 16 -2 23 2
7 5 27 8 45 7 23 -1 31 -6 31 -20z m132 -172 c-3 -3 -12 -4 -19 -1 -8 3 -5 6
6 6 11 1 17 -2 13 -5z m59 -136 c5 -8 2 -9 -10 -5 -10 4 -21 7 -25 7 -4 0 -8
7 -8 14 0 11 5 12 18 5 10 -5 21 -14 25 -21z m45 -31 c-8 -8 -11 -5 -11 9 0
27 14 41 18 19 2 -9 -1 -22 -7 -28z m350 -750 c-13 -13 -26 -3 -16 12 3 6 11
8 17 5 6 -4 6 -10 -1 -17z m199 -277 c0 -5 -4 -10 -10 -10 -5 0 -10 5 -10 10
0 6 5 10 10 10 6 0 10 -4 10 -10z m60 -150 c0 -5 -4 -10 -10 -10 -5 0 -10 5
-10 10 0 6 5 10 10 10 6 0 10 -4 10 -10z m197 -332 c-3 -8 -6 -5 -6 6 -1 11 2
17 5 13 3 -3 4 -12 1 -19z m153 -284 c0 -8 -5 -12 -10 -9 -6 4 -8 11 -5 16 9
14 15 11 15 -7z m210 -314 c0 -5 -2 -10 -4 -10 -3 0 -8 5 -11 10 -3 6 -1 10 4
10 6 0 11 -4 11 -10z m260 -420 c0 -5 -7 -7 -15 -4 -8 4 -15 8 -15 10 0 2 7 4
15 4 8 0 15 -4 15 -10z m300 -394 c0 -2 -7 -6 -15 -10 -8 -3 -15 -1 -15 4 0 6
7 10 15 10 8 0 15 -2 15 -4z m40 -116 c0 -5 -2 -10 -4 -10 -3 0 -8 5 -11 10
-3 6 -1 10 4 10 6 0 11 -4 11 -10z m70 -161 c0 -5 -4 -9 -10 -9 -5 0 -10 7
-10 16 0 8 5 12 10 9 6 -3 10 -10 10 -16z m110 -149 c0 -5 -5 -10 -11 -10 -5
0 -7 5 -4 10 3 6 8 10 11 10 2 0 4 -4 4 -10z m49 -90 c-14 -9 -29 -4 -29 10 0
5 7 7 15 4 9 -4 15 0 16 7 0 12 1 12 6 0 3 -7 -1 -17 -8 -21z m905 -31 c-10
-16 -24 -9 -24 12 0 18 2 19 15 9 8 -7 12 -16 9 -21z m21 -29 c-4 -12 -2 -20
5 -20 6 0 8 5 5 10 -3 6 1 10 9 10 20 0 20 -5 -1 -41 -21 -36 -31 -37 -39 -4
-3 14 -10 22 -15 19 -12 -7 2 29 15 38 19 13 28 8 21 -12z m-855 -39 c0 -5 -6
-14 -14 -20 -11 -9 -16 -9 -21 0 -4 6 -1 15 6 20 18 11 29 11 29 0z m979 -50
c12 -11 22 -22 22 -25 -5 -37 1 -54 21 -59 18 -5 19 -8 8 -21 -7 -9 -18 -16
-25 -16 -8 0 -15 -6 -17 -12 -4 -10 -9 -8 -21 3 -9 9 -13 19 -10 23 4 3 -7 6
-23 7 -28 0 -28 1 -6 10 17 6 22 14 17 28 -3 11 -1 22 5 26 15 9 12 35 -5 35
-8 0 -15 5 -15 10 0 16 25 11 49 -9z m371 -5 c0 -2 -7 -7 -16 -10 -8 -3 -12
-2 -9 4 6 10 25 14 25 6z m-426 -21 c-4 -8 -8 -15 -10 -15 -2 0 -4 7 -4 15 0
8 4 15 10 15 5 0 7 -7 4 -15z m-857 -41 c-9 -9 -28 6 -21 18 4 6 10 6 17 -1 6
-6 8 -13 4 -17z m1023 6 c0 -5 -2 -10 -4 -10 -3 0 -8 5 -11 10 -3 6 -1 10 4
10 6 0 11 -4 11 -10z m395 -9 c3 -5 1 -12 -5 -16 -5 -3 -10 1 -10 9 0 18 6 21
15 7z m-378 -41 c-3 -39 -13 -39 -19 0 -3 20 0 30 8 30 8 0 12 -11 11 -30z
m455 8 c-7 -7 -12 -8 -12 -2 0 14 12 26 19 19 2 -3 -1 -11 -7 -17z m-502 -23
c0 -16 -6 -25 -15 -25 -18 0 -20 21 -3 38 17 17 18 16 18 -13z m133 -25 c29
-1 30 -2 12 -12 -11 -6 -23 -16 -27 -22 -8 -12 -50 22 -43 35 3 4 1 10 -5 14
-5 3 -10 11 -10 16 0 6 4 8 9 4 5 -3 13 0 18 7 5 9 9 4 11 -14 3 -24 8 -28 35
-28z m267 34 c0 -3 -7 -12 -15 -21 -20 -19 -32 -10 -14 11 14 15 29 21 29 10z
m-1308 -27 c-15 -7 -26 -7 -33 0 -6 6 1 10 23 10 30 0 30 -1 10 -10z m1468
-23 c0 -8 -4 -14 -10 -14 -5 0 -10 9 -10 21 0 11 5 17 10 14 6 -3 10 -13 10
-21z m-510 1 c-11 -13 -10 -14 2 -10 8 3 24 -6 36 -20 12 -14 26 -25 32 -25 5
0 11 -12 11 -27 1 -17 3 -21 6 -10 2 9 11 17 18 17 7 0 20 3 28 6 20 7 33 -32
16 -52 -10 -12 -9 -18 6 -32 17 -16 17 -16 12 0 -4 11 -2 17 6 15 7 -1 11 6 9
16 -2 9 2 17 8 17 5 0 10 -4 10 -9 0 -5 8 -11 18 -14 11 -2 22 -15 25 -28 l6
-24 -19 25 c-15 19 -20 21 -20 9 0 -9 6 -22 14 -29 8 -6 13 -17 10 -24 -7 -18
28 -26 52 -13 18 10 18 10 1 -16 -9 -14 -17 -35 -17 -47 0 -28 -14 -25 -36 8
-9 15 -26 35 -37 44 -12 11 -17 24 -13 35 5 16 4 16 -6 3 -7 -8 -27 -15 -45
-16 -28 -1 -31 1 -23 17 14 25 12 32 -4 26 -23 -9 -56 26 -49 52 5 20 3 22
-36 20 -31 -2 -44 2 -55 17 -17 23 -12 32 9 14 17 -14 31 -8 20 9 -3 6 -23 11
-43 11 -34 0 -35 1 -16 15 10 8 15 15 9 16 -5 1 4 5 20 9 46 12 48 11 35 -5z
m-940 -9 c0 -3 -4 -8 -10 -11 -5 -3 -10 -1 -10 4 0 6 5 11 10 11 6 0 10 -2 10
-4z m1055 -6 c3 -5 2 -10 -4 -10 -5 0 -13 5 -16 10 -3 6 -2 10 4 10 5 0 13 -4
16 -10z m465 6 c0 -3 -4 -8 -10 -11 -5 -3 -10 -1 -10 4 0 6 5 11 10 11 6 0 10
-2 10 -4z m-100 -43 c0 -5 -5 -15 -10 -23 -7 -12 -9 -10 -7 8 1 19 17 33 17
15z m-133 -19 c-3 -3 -12 -4 -19 -1 -8 3 -5 6 6 6 11 1 17 -2 13 -5z m218 -6
c-7 -18 -53 -19 -59 -2 -4 10 4 14 29 14 23 0 33 -4 30 -12z m109 -23 c-4 -16
-2 -25 6 -25 6 0 8 -5 5 -10 -4 -6 -11 -8 -16 -4 -5 3 -16 0 -24 -6 -10 -8
-15 -9 -15 -2 0 6 5 14 10 17 6 3 10 15 10 25 0 15 8 23 28 29 1 1 0 -10 -4
-24z m-204 -15 c6 -11 7 -20 2 -20 -10 0 -32 21 -32 32 0 16 19 8 30 -12z
m253 -5 c-13 -10 -20 -10 -25 -2 -9 14 10 27 29 20 11 -4 10 -8 -4 -18z m85 3
c3 -17 -35 -32 -44 -17 -3 5 0 9 5 9 6 0 11 7 11 16 0 20 24 13 28 -8z m-454
-3 c-4 -8 -10 -12 -15 -9 -14 8 -10 24 6 24 9 0 12 -6 9 -15z m176 -24 c0 -6
-4 -13 -10 -16 -5 -3 -10 1 -10 9 0 9 5 16 10 16 6 0 10 -4 10 -9z m220 -6 c7
-8 8 -15 3 -15 -6 0 -15 -10 -21 -22 -8 -18 -11 -19 -11 -6 -1 9 4 20 9 23 8
5 7 11 -1 21 -7 8 -7 14 -1 14 5 0 15 -7 22 -15z m-396 -10 c3 -8 1 -15 -4
-15 -6 0 -10 7 -10 15 0 8 2 15 4 15 2 0 6 -7 10 -15z m342 -28 c5 -31 -12
-45 -19 -16 -6 21 2 54 10 46 2 -3 6 -16 9 -30z m-1492 -17 c9 0 16 -4 16 -9
0 -13 -53 -3 -62 12 -4 7 -8 19 -8 27 1 11 6 9 19 -7 11 -13 26 -23 35 -23z
m1271 10 c-11 -5 -14 -9 -6 -9 11 -1 11 -4 1 -16 -14 -17 -5 -36 15 -28 18 6
20 -8 3 -26 -10 -10 -10 -15 -1 -18 7 -2 9 -11 6 -19 -3 -7 -9 -11 -14 -8 -5
3 -9 -1 -9 -9 0 -21 -50 -32 -67 -14 -12 12 -12 16 3 28 16 13 17 12 12 -8 -5
-20 -4 -21 13 -12 23 12 24 27 4 56 -10 15 -12 24 -5 28 6 4 10 14 9 23 -3 35
2 42 29 41 24 0 25 -1 7 -9z m363 -11 c12 -19 11 -19 -8 -9 -11 6 -25 8 -30 5
-6 -3 -10 1 -10 9 0 23 33 20 48 -5z m-232 -14 c14 -13 14 -15 -1 -15 -26 0
-13 -33 13 -35 18 -1 22 2 19 17 -3 10 -1 18 4 18 5 0 9 -5 9 -10 0 -6 11 -15
25 -20 15 -6 23 -15 19 -24 -3 -8 -1 -17 5 -21 7 -3 11 2 11 14 0 11 4 22 9
25 14 9 8 -40 -6 -53 -10 -9 -13 -9 -13 0 0 8 -4 8 -15 -1 -18 -15 -20 -46 -4
-56 6 -3 15 0 20 7 8 14 10 12 13 -13 2 -19 36 -22 36 -5 0 9 -6 18 -12 21 -7
3 0 2 16 -1 24 -5 28 -3 23 10 -3 9 -2 19 3 22 15 9 12 35 -4 29 -7 -3 -16 2
-19 10 -5 12 1 14 28 13 44 -3 53 -13 29 -34 -22 -21 -30 -64 -11 -60 7 1 11
-7 9 -20 -2 -17 2 -23 17 -23 11 0 23 -4 26 -10 3 -5 -1 -10 -9 -10 -22 0 -22
-78 -1 -86 17 -7 21 -34 5 -34 -5 0 -10 -7 -10 -16 0 -16 -27 -43 -42 -44 -5
0 -8 7 -8 16 0 10 -6 14 -15 10 -8 -3 -15 -1 -15 4 0 19 -21 10 -30 -12 -7
-18 -9 -19 -9 -5 -1 9 -9 17 -18 17 -15 1 -15 3 5 19 22 19 31 38 11 26 -16
-11 -59 4 -59 20 0 9 -10 15 -25 15 -26 0 -35 25 -12 33 6 2 8 8 4 13 -5 5
-14 1 -22 -9 -11 -15 -14 -15 -25 -3 -6 9 -9 20 -5 25 3 6 1 19 -5 30 -8 16
-6 20 8 24 14 3 13 6 -8 15 -14 6 -20 12 -15 13 6 1 15 2 20 4 6 1 20 3 33 3
29 2 31 42 1 49 -14 4 -19 12 -16 24 4 14 0 19 -14 19 -22 0 -23 8 -9 44 11
30 16 31 36 11z m158 -21 c6 -17 7 -17 -32 -3 -18 6 -30 14 -27 19 7 12 53 0
59 -16z m-232 -6 c-7 -7 -12 -8 -12 -2 0 14 12 26 19 19 2 -3 -1 -11 -7 -17z
m-171 -17 c1 -14 2 -13 6 2 7 28 18 19 18 -15 0 -30 -3 -33 -32 -36 -19 -2
-33 1 -33 8 0 6 -7 10 -16 8 -11 -2 -18 5 -20 21 -4 20 -1 22 21 17 19 -5 23
-3 19 8 -4 11 0 13 15 9 12 -3 22 -13 22 -22z m469 19 c0 -5 -10 -10 -22 -10
-19 0 -20 2 -8 10 19 13 30 13 30 0z m-1550 -40 c0 -5 -4 -10 -10 -10 -5 0
-10 5 -10 10 0 6 5 10 10 10 6 0 10 -4 10 -10z m1268 -58 c2 -7 -9 -17 -24
-23 -22 -8 -25 -12 -14 -19 7 -5 14 -17 15 -28 1 -15 -4 -19 -28 -18 -23 1
-32 9 -43 35 -13 30 -12 33 4 37 9 3 21 5 25 4 4 0 15 6 24 15 17 17 34 16 41
-3z m197 -1 c-3 -6 -11 -11 -17 -11 -6 0 -6 6 2 15 14 17 26 13 15 -4z m-538
-193 c-3 -8 -6 -5 -6 6 -1 11 2 17 5 13 3 -3 4 -12 1 -19z m618 -208 c3 -6 -4
-10 -17 -10 -18 0 -20 2 -8 10 19 12 18 12 25 0z m-425 -30 c0 -5 -4 -10 -10
-10 -5 0 -10 5 -10 10 0 6 5 10 10 10 6 0 10 -4 10 -10z m370 -100 c0 -5 -4
-10 -9 -10 -6 0 -13 5 -16 10 -3 6 1 10 9 10 9 0 16 -4 16 -10z m60 -15 c0 -8
-2 -15 -4 -15 -2 0 -6 7 -10 15 -3 8 -1 15 4 15 6 0 10 -7 10 -15z m-375 -15
c3 -5 1 -10 -4 -10 -6 0 -11 5 -11 10 0 6 2 10 4 10 3 0 8 -4 11 -10z m140
-100 c3 -5 2 -10 -4 -10 -5 0 -13 5 -16 10 -3 6 -2 10 4 10 5 0 13 -4 16 -10z
m-885 -50 c0 -5 -2 -10 -4 -10 -3 0 -8 5 -11 10 -3 6 -1 10 4 10 6 0 11 -4 11
-10z m770 -10 c0 -5 -4 -10 -10 -10 -5 0 -10 5 -10 10 0 6 5 10 10 10 6 0 10
-4 10 -10z m70 -40 c0 -5 -5 -10 -11 -10 -5 0 -7 5 -4 10 3 6 8 10 11 10 2 0
4 -4 4 -10z m-80 -100 c0 -5 -5 -10 -11 -10 -5 0 -7 5 -4 10 3 6 8 10 11 10 2
0 4 -4 4 -10z m270 0 c0 -5 -7 -10 -15 -10 -8 0 -15 5 -15 10 0 6 7 10 15 10
8 0 15 -4 15 -10z m73 -132 c5 1 6 -2 2 -7 -7 -13 -47 1 -53 18 -3 10 1 10 19
0 13 -7 28 -12 32 -11z m-453 -12 c0 -3 -4 -8 -10 -11 -5 -3 -10 -1 -10 4 0 6
5 11 10 11 6 0 10 -2 10 -4z m353 -11 c-3 -9 -8 -14 -10 -11 -3 3 -2 9 2 15 9
16 15 13 8 -4z m-233 -4 c0 -5 -9 -11 -20 -14 -11 -3 -20 -1 -20 3 0 5 8 11
18 13 9 3 18 5 20 6 1 0 2 -3 2 -8z m-95 -11 c3 -5 1 -10 -4 -10 -6 0 -11 5
-11 10 0 6 2 10 4 10 3 0 8 -4 11 -10z m145 -81 c0 -6 -4 -7 -10 -4 -5 3 -10
11 -10 16 0 6 5 7 10 4 6 -3 10 -11 10 -16z m320 -19 c0 -22 -34 -28 -46 -8
-4 7 -3 8 5 4 6 -4 14 0 17 8 9 23 24 20 24 -4z m-205 0 c3 -5 1 -10 -4 -10
-6 0 -11 5 -11 10 0 6 2 10 4 10 3 0 8 -4 11 -10z m115 -33 c10 3 11 2 4 -4
-6 -4 -14 -21 -18 -37 -9 -36 -12 -32 -19 24 -4 36 -3 42 6 29 7 -9 19 -14 27
-12z m-305 3 c3 -5 -1 -10 -9 -10 -9 0 -16 5 -16 10 0 6 4 10 9 10 6 0 13 -4
16 -10z m405 -80 c0 -5 -5 -10 -11 -10 -5 0 -7 5 -4 10 3 6 8 10 11 10 2 0 4
-4 4 -10z m-16 -31 c-8 -13 -24 -1 -24 18 0 13 3 13 15 3 8 -7 12 -16 9 -21z
m-292 -30 l5 -30 -22 23 c-19 20 -20 24 -6 30 9 4 17 7 17 7 1 1 4 -13 6 -30z
m188 -15 c0 -2 -7 -4 -15 -4 -8 0 -15 4 -15 10 0 5 7 7 15 4 8 -4 15 -8 15
-10z m-410 -8 c0 -11 -19 -15 -25 -6 -3 5 1 10 9 10 9 0 16 -2 16 -4z m180 0
c0 -3 -4 -8 -10 -11 -5 -3 -10 -1 -10 4 0 6 5 11 10 11 6 0 10 -2 10 -4z m341
-48 c-6 -13 -10 -17 -10 -10 -1 19 -25 14 -39 -8 -13 -22 -37 -26 -47 -9 -8
13 25 40 42 34 18 -6 28 16 12 27 -11 8 -10 9 4 4 9 -3 17 -1 17 5 0 6 7 4 15
-5 11 -11 12 -21 6 -38z m-223 21 c-19 -13 -28 -11 -28 5 0 9 7 12 21 9 16 -4
17 -8 7 -14z m-498 7 c0 -11 -19 -15 -25 -6 -3 5 1 10 9 10 9 0 16 -2 16 -4z
m440 -36 c0 -5 -4 -10 -10 -10 -5 0 -10 5 -10 10 0 6 5 10 10 10 6 0 10 -4 10
-10z m-76 -36 c25 -10 19 -22 -9 -16 -14 2 -25 8 -25 13 0 10 12 11 34 3z m96
-14 c0 -5 -4 -10 -10 -10 -5 0 -10 5 -10 10 0 6 5 10 10 10 6 0 10 -4 10 -10z
m36 -5 c-3 -8 0 -15 6 -15 6 0 9 -3 5 -6 -3 -4 -14 -4 -23 0 -13 5 -14 9 -4
21 16 19 24 19 16 0z m-315 -42 c13 -16 12 -17 -3 -4 -17 13 -22 21 -14 21 2
0 10 -8 17 -17z m478 0 c-1 -10 -1 -25 0 -33 1 -12 3 -12 10 -2 7 11 9 11 14
-2 9 -22 -9 -20 -43 6 -31 23 -41 44 -15 35 8 -4 17 -2 20 3 10 15 16 12 14
-7z m-114 -13 c-3 -5 -10 -10 -16 -10 -5 0 -9 5 -9 10 0 6 7 10 16 10 8 0 12
-4 9 -10z m30 -40 c-6 -19 -3 -21 34 -16 31 4 41 1 41 -10 0 -8 -9 -14 -20
-14 -11 0 -20 -4 -20 -9 0 -7 -32 -8 -72 -2 -5 1 -8 9 -8 19 0 13 2 14 9 3 13
-21 29 -5 23 24 -2 15 0 25 8 25 7 0 9 -8 5 -20z m-165 -60 c0 -14 28 -12 33
3 3 9 7 9 19 -1 25 -20 81 -34 88 -21 4 6 11 4 20 -6 11 -13 8 -15 -17 -15
-17 0 -43 -10 -59 -22 l-29 -23 17 27 c15 22 15 27 3 32 -16 6 -29 -9 -20 -23
3 -6 -3 -15 -14 -20 -11 -6 -23 -20 -26 -32 -4 -11 -9 -18 -11 -16 -3 3 2 22
11 43 15 36 15 39 -2 51 -11 9 -20 10 -27 3 -17 -17 -27 -11 -14 10 14 21 28
27 28 10z m-141 -26 c12 -15 17 -32 13 -42 -6 -15 -7 -14 -10 3 -2 11 -13 30
-25 43 -11 12 -16 22 -9 22 6 0 20 -12 31 -26z m427 -21 c-2 -16 -7 -45 -11
-67 -6 -31 -10 -35 -17 -22 -5 9 -13 14 -19 11 -5 -4 -16 0 -24 8 -13 13 -13
16 0 21 24 9 17 25 -7 20 -21 -4 -21 -4 -3 5 12 5 24 5 30 0 15 -15 23 -10 34
21 13 38 22 39 17 3z m-96 4 c0 -7 -7 -22 -15 -33 -13 -17 -13 -16 -3 14 13
34 18 40 18 19z m126 -79 c5 -8 2 -9 -9 -5 -10 4 -17 1 -17 -5 0 -6 -3 -9 -6
-5 -7 7 4 27 16 27 5 0 12 -5 16 -12z m-146 -13 c0 -2 -7 -5 -15 -9 -9 -3 -15
0 -15 9 0 9 6 12 15 9 8 -4 15 -7 15 -9z m-280 -5 c0 -9 -32 -30 -46 -30 -9 0
28 39 39 39 4 1 7 -3 7 -9z m200 -10 c-14 -10 -27 -16 -30 -13 -6 6 30 33 44
33 6 0 0 -9 -14 -20z m-100 0 c0 -5 -12 -10 -26 -10 -14 0 -23 4 -19 10 3 6
15 10 26 10 10 0 19 -4 19 -10z m245 -31 c-5 -39 -25 -65 -36 -48 -4 8 -1 18
8 24 10 7 13 17 8 25 -6 10 8 29 22 30 1 0 0 -14 -2 -31z m-310 11 c3 -5 -1
-10 -10 -10 -9 0 -13 5 -10 10 3 6 8 10 10 10 2 0 7 -4 10 -10z m184 -11 c-11
-6 -10 -9 4 -15 9 -3 17 -10 17 -16 0 -13 26 -38 42 -39 7 -1 2 -4 -12 -8 -34
-10 -63 5 -57 30 3 11 -1 25 -8 33 -15 15 0 40 18 29 5 -3 3 -9 -4 -14z m171
1 c0 -11 -4 -20 -10 -20 -5 0 -10 2 -10 4 0 2 -3 11 -6 20 -4 11 -1 16 10 16
9 0 16 -8 16 -20z m-260 0 c0 -5 -4 -10 -10 -10 -5 0 -10 5 -10 10 0 6 5 10
10 10 6 0 10 -4 10 -10z m-135 -71 c11 -17 -1 -21 -15 -4 -8 9 -8 15 -2 15 6
0 14 -5 17 -11z m245 -44 c0 -8 -4 -15 -9 -15 -13 0 -22 16 -14 24 11 11 23 6
23 -9z"/>
<path d="M22045 14440 c3 -5 8 -10 11 -10 2 0 4 5 4 10 0 6 -5 10 -11 10 -5 0
-7 -4 -4 -10z"/>
<path d="M22070 14415 c0 -9 5 -15 11 -13 6 2 11 8 11 13 0 5 -5 11 -11 13 -6
2 -11 -4 -11 -13z"/>
<path d="M22020 14356 c0 -2 7 -9 15 -16 13 -11 14 -10 9 4 -5 14 -24 23 -24
12z"/>
<path d="M22130 14309 c0 -5 5 -7 10 -4 6 3 10 8 10 11 0 2 -4 4 -10 4 -5 0
-10 -5 -10 -11z"/>
<path d="M22125 14270 c-3 -5 1 -10 10 -10 9 0 13 5 10 10 -3 6 -8 10 -10 10
-2 0 -7 -4 -10 -10z"/>
<path d="M22730 19725 c0 -8 5 -15 10 -15 6 0 10 7 10 15 0 8 -4 15 -10 15 -5
0 -10 -7 -10 -15z"/>
<path d="M17680 19719 c0 -5 5 -7 10 -4 6 3 10 8 10 11 0 2 -4 4 -10 4 -5 0
-10 -5 -10 -11z"/>
<path d="M17695 19680 c-3 -5 1 -10 9 -10 9 0 16 5 16 10 0 6 -4 10 -9 10 -6
0 -13 -4 -16 -10z"/>
<path d="M22655 19650 c3 -5 8 -10 11 -10 2 0 4 5 4 10 0 6 -5 10 -11 10 -5 0
-7 -4 -4 -10z"/>
<path d="M22725 19630 c-3 -5 -1 -10 4 -10 6 0 11 5 11 10 0 6 -2 10 -4 10 -3
0 -8 -4 -11 -10z"/>
<path d="M22685 19591 c-3 -5 -1 -12 5 -16 5 -3 10 1 10 9 0 18 -6 21 -15 7z"/>
<path d="M22650 19550 c0 -5 5 -10 11 -10 7 0 18 -8 25 -17 7 -10 16 -15 20
-10 4 4 -2 16 -14 27 -23 22 -42 26 -42 10z"/>
<path d="M17646 19461 c-4 -7 -5 -15 -2 -18 9 -9 19 4 14 18 -4 11 -6 11 -12
0z"/>
<path d="M17690 19440 c0 -5 5 -10 10 -10 6 0 10 5 10 10 0 6 -4 10 -10 10 -5
0 -10 -4 -10 -10z"/>
<path d="M17585 19420 c3 -5 8 -10 11 -10 2 0 4 5 4 10 0 6 -5 10 -11 10 -5 0
-7 -4 -4 -10z"/>
<path d="M18000 18641 c0 -29 25 -33 28 -5 1 15 -4 24 -13 24 -8 0 -15 -9 -15
-19z"/>
<path d="M18233 18263 c9 -14 47 -24 47 -12 0 5 -4 9 -9 9 -5 0 -17 3 -27 7
-11 4 -15 3 -11 -4z"/>
<path d="M18446 17895 c-8 -23 -8 -25 8 -25 8 0 13 7 12 15 -3 23 -13 27 -20
10z"/>
<path d="M18570 17668 c0 -9 5 -20 11 -23 17 -11 20 0 4 21 -13 17 -14 17 -15
2z"/>
<path d="M18600 17600 c0 -5 7 -10 15 -10 8 0 15 5 15 10 0 6 -7 10 -15 10 -8
0 -15 -4 -15 -10z"/>
<path d="M22947 17565 c-4 -8 -2 -17 3 -20 6 -4 10 3 10 14 0 25 -6 27 -13 6z"/>
<path d="M22930 17370 c-12 -8 -10 -10 8 -10 13 0 20 4 17 10 -7 12 -6 12 -25
0z"/>
<path d="M22950 17321 c0 -11 26 -22 34 -14 3 3 3 10 0 14 -7 12 -34 11 -34 0z"/>
<path d="M18780 17296 c0 -17 14 -29 23 -20 8 8 -3 34 -14 34 -5 0 -9 -6 -9
-14z"/>
<path d="M19630 17270 c0 -5 5 -10 10 -10 6 0 10 5 10 10 0 6 -4 10 -10 10 -5
0 -10 -4 -10 -10z"/>
<path d="M22925 17251 c-6 -11 9 -23 19 -14 9 9 7 23 -3 23 -6 0 -12 -4 -16
-9z"/>
<path d="M22966 17245 c4 -8 8 -15 10 -15 2 0 4 7 4 15 0 8 -4 15 -10 15 -5 0
-7 -7 -4 -15z"/>
<path d="M22960 17199 c-15 -28 -7 -34 14 -10 11 12 13 21 7 25 -5 4 -15 -3
-21 -15z"/>
<path d="M22946 17157 c-11 -8 -15 -17 -9 -20 13 -8 62 5 65 18 5 16 -35 17
-56 2z"/>
<path d="M23000 16860 c0 -5 7 -10 15 -10 8 0 15 5 15 10 0 6 -7 10 -15 10 -8
0 -15 -4 -15 -10z"/>
<path d="M23018 16823 c7 -3 16 -2 19 1 4 3 -2 6 -13 5 -11 0 -14 -3 -6 -6z"/>
<path d="M23005 16701 c-3 -5 -1 -12 5 -16 5 -3 10 1 10 9 0 18 -6 21 -15 7z"/>
<path d="M19545 16630 c-3 -5 1 -10 9 -10 9 0 16 5 16 10 0 6 -4 10 -9 10 -6
0 -13 -4 -16 -10z"/>
<path d="M23010 16584 c0 -8 5 -12 10 -9 6 3 10 10 10 16 0 5 -4 9 -10 9 -5 0
-10 -7 -10 -16z"/>
<path d="M19186 16561 c-4 -7 -5 -15 -2 -18 9 -9 19 4 14 18 -4 11 -6 11 -12
0z"/>
<path d="M23020 16539 c6 -10 17 -16 25 -13 19 8 12 20 -15 27 -17 4 -18 2
-10 -14z"/>
<path d="M23005 16489 c-11 -17 1 -21 15 -4 8 9 8 15 2 15 -6 0 -14 -5 -17
-11z"/>
<path d="M19270 16460 c0 -5 5 -10 11 -10 5 0 7 5 4 10 -3 6 -8 10 -11 10 -2
0 -4 -4 -4 -10z"/>
<path d="M23000 16449 c0 -5 5 -7 10 -4 6 3 10 8 10 11 0 2 -4 4 -10 4 -5 0
-10 -5 -10 -11z"/>
<path d="M22995 16351 c3 -5 -1 -15 -8 -23 -33 -33 -46 -91 -16 -73 5 4 9 -3
9 -14 0 -12 -4 -21 -10 -21 -5 0 -10 -13 -10 -30 0 -16 -4 -30 -9 -30 -15 0
-22 -32 -10 -46 9 -11 8 -14 -5 -14 -22 0 -31 -27 -16 -45 10 -12 9 -19 -2
-37 -8 -13 -13 -29 -11 -35 6 -18 33 -16 33 2 0 9 6 12 15 9 8 -4 12 -10 9
-15 -3 -5 2 -9 10 -9 10 0 13 6 10 15 -4 8 -1 15 5 15 6 0 11 5 11 11 0 8 -5
8 -15 -1 -13 -10 -15 -9 -15 11 0 13 -12 33 -27 46 -19 15 -23 22 -13 23 8 0
21 4 29 9 12 8 13 12 1 26 -11 14 -10 17 8 22 24 6 31 48 10 56 -9 4 -7 6 3 6
9 1 22 13 30 29 7 15 15 30 17 33 1 4 -4 14 -13 23 -15 15 -15 16 4 16 12 0
21 5 21 10 0 6 -7 10 -15 10 -8 0 -15 7 -15 15 0 8 -5 15 -11 15 -5 0 -8 -4
-4 -9z"/>
<path d="M23010 16210 c0 -5 4 -10 9 -10 6 0 13 5 16 10 3 6 -1 10 -9 10 -9 0
-16 -4 -16 -10z"/>
<path d="M23010 16120 c0 -5 5 -10 10 -10 6 0 10 5 10 10 0 6 -4 10 -10 10 -5
0 -10 -4 -10 -10z"/>
<path d="M22977 16060 c10 -11 18 -20 19 -20 1 0 0 9 -3 20 -3 11 -12 20 -19
20 -11 0 -10 -5 3 -20z"/>
<path d="M19562 15989 c2 -7 10 -15 17 -17 8 -3 12 1 9 9 -2 7 -10 15 -17 17
-8 3 -12 -1 -9 -9z"/>
<path d="M22875 15923 c-11 -21 -19 -45 -20 -54 0 -9 -6 -23 -13 -31 -10 -13
-10 -17 0 -20 10 -4 11 -8 1 -20 -7 -8 -10 -18 -6 -21 3 -4 -2 -7 -11 -7 -10
0 -16 -6 -13 -12 2 -7 -1 -22 -6 -33 -6 -11 -11 -24 -12 -30 -2 -20 -30 -68
-57 -97 -15 -17 -25 -34 -22 -39 3 -5 -8 -23 -25 -40 -17 -17 -31 -35 -31 -39
0 -5 -9 -14 -20 -20 -11 -6 -20 -15 -20 -21 0 -11 -25 -39 -34 -39 -12 0 -56
-52 -56 -66 0 -8 -10 -29 -22 -46 l-23 -30 23 -15 c24 -17 30 -43 10 -44 -7 0
-4 -4 7 -8 19 -8 19 -8 -3 -15 -18 -6 -21 -12 -16 -29 3 -12 15 -29 26 -38 20
-16 20 -16 2 -37 -10 -12 -24 -22 -31 -22 -7 0 -13 -4 -13 -10 0 -5 5 -10 11
-10 14 0 48 -41 49 -57 0 -7 -9 -22 -20 -33 -22 -22 -27 -50 -7 -50 6 0 21 -7
31 -15 18 -13 18 -16 4 -32 -9 -10 -17 -25 -19 -33 -3 -19 21 -70 34 -70 5 0
5 -6 -2 -13 -6 -8 -8 -17 -4 -20 3 -4 2 -7 -3 -7 -6 0 -15 5 -22 12 -9 9 -12
8 -12 -5 0 -9 9 -22 20 -29 11 -7 20 -18 20 -24 0 -7 7 -14 15 -18 18 -7 20
-47 3 -64 -10 -10 -10 -15 -1 -20 11 -7 10 -72 -1 -91 -3 -5 -3 -22 0 -39 7
-36 46 -49 71 -23 15 14 14 16 -14 25 -41 11 -54 56 -17 56 13 0 24 5 24 11 0
5 4 8 10 4 5 -3 0 -15 -11 -26 -22 -22 -16 -48 6 -29 22 18 37 1 33 -36 -3
-25 -1 -33 9 -30 7 3 16 -2 21 -10 8 -14 12 -14 45 0 58 24 56 -8 -2 -47 -23
-15 -26 -15 -43 0 -17 15 -40 21 -93 24 -11 1 -14 3 -7 6 13 5 17 33 5 33 -31
-1 -45 -93 -16 -104 10 -4 13 -2 10 8 -5 12 20 33 28 24 8 -8 7 -46 -2 -68
-11 -26 -1 -50 21 -50 6 0 5 4 -3 9 -8 6 -10 14 -5 22 9 15 10 20 12 62 2 22
7 27 27 27 25 0 36 -25 14 -32 -5 -2 -12 -18 -15 -36 -5 -30 1 -37 29 -33 4 0
7 -3 7 -8 0 -6 9 -9 20 -8 23 1 27 15 6 23 -9 3 -12 13 -8 27 5 20 4 21 -12 8
-19 -16 -31 -9 -22 14 3 8 19 18 36 21 16 4 30 10 30 15 0 5 7 9 16 9 8 0 12
5 9 10 -3 6 -1 10 4 10 6 0 11 -5 11 -11 0 -5 5 -7 11 -3 8 5 8 9 -1 14 -7 4
-10 17 -7 29 3 13 0 21 -8 21 -25 0 -39 32 -39 88 0 32 -2 47 -4 35 -2 -13
-11 -23 -19 -23 -9 0 -14 3 -11 6 3 3 -5 17 -19 32 -25 27 -25 27 -4 30 12 2
18 8 15 14 -4 6 -1 14 6 18 9 6 9 13 1 28 -15 29 -15 50 1 34 7 -7 19 -12 28
-12 13 0 13 1 0 10 -12 7 -12 12 -2 22 6 6 12 27 12 45 0 25 -4 31 -15 27 -9
-4 -15 0 -15 9 0 8 6 18 13 20 7 3 5 6 -5 6 -10 1 -22 11 -29 22 -7 13 -7 19
-1 15 6 -3 13 -2 17 3 3 6 -3 15 -14 21 -13 7 -22 25 -27 58 -4 26 -12 51 -18
55 -7 6 -6 7 4 4 18 -5 67 22 75 41 3 7 1 20 -3 28 -8 13 -10 13 -21 0 -7 -8
-18 -13 -25 -10 -9 4 -4 14 16 35 33 32 61 39 51 12 -5 -12 -2 -15 10 -10 8 3
18 1 20 -6 3 -7 4 -1 4 12 -1 14 -10 26 -24 32 -13 5 -23 14 -23 21 0 22 17
41 29 34 9 -6 16 7 9 17 -1 1 4 12 10 24 9 16 9 22 0 25 -19 7 2 28 28 28 24
0 32 14 14 25 -5 3 -10 17 -10 30 0 13 -10 34 -22 45 -22 21 -22 22 -3 20 46
-5 64 0 59 15 -4 8 -11 15 -18 15 -6 0 -16 11 -23 25 -6 14 -7 25 -2 25 5 0 9
-5 9 -11 0 -6 7 -9 15 -5 8 3 15 0 15 -6 0 -6 10 0 23 14 12 13 29 23 37 21 9
-2 7 1 -3 7 -14 9 -22 9 -30 1 -14 -14 -27 -14 -27 1 0 6 -7 19 -16 29 -20 22
-9 46 12 28 11 -9 14 -7 14 10 0 12 7 24 15 27 23 9 18 26 -5 19 -14 -5 -20
-2 -20 9 0 9 8 16 18 16 25 0 25 37 0 51 -16 9 -19 8 -13 -2 6 -8 4 -10 -6 -3
-8 5 -23 7 -34 6 l-20 -3 20 14 c30 21 67 28 82 15 27 -22 24 2 -3 25 l-28 24
-18 -21 c-9 -12 -17 -15 -18 -8 0 6 9 21 21 33 16 16 23 18 35 8 11 -9 14 -7
14 14 0 20 4 25 15 21 12 -5 13 -10 4 -20 -6 -8 -7 -14 -3 -14 5 0 15 9 21 19
10 17 8 24 -20 51 -18 17 -24 28 -14 25 9 -4 24 -2 32 5 12 10 13 16 3 28 -7
8 -13 22 -13 31 0 10 -7 15 -19 13 -10 -2 -15 1 -12 7 3 5 1 11 -6 14 -7 2 -5
3 5 2 11 -2 17 3 17 16 0 13 -7 19 -23 19 -17 0 -29 -10 -42 -37z m39 -49 c23
-9 20 -34 -4 -34 -11 0 -20 -7 -20 -15 0 -8 -4 -15 -9 -15 -6 0 -9 9 -8 20 1
11 8 20 15 20 8 0 12 6 8 15 -6 17 -4 18 18 9z m-44 -84 c0 -5 -4 -10 -10 -10
-5 0 -10 5 -10 10 0 6 5 10 10 10 6 0 10 -4 10 -10z m-43 -102 c-3 -8 -6 -5
-6 6 -1 11 2 17 5 13 3 -3 4 -12 1 -19z m21 -227 c3 -8 -1 -12 -9 -9 -7 2 -15
10 -17 17 -3 8 1 12 9 9 7 -2 15 -10 17 -17z m-13 -161 c-3 -5 -10 -10 -16
-10 -5 0 -9 5 -9 10 0 6 7 10 16 10 8 0 12 -4 9 -10z m-41 -106 c25 -10 19
-22 -9 -16 -14 2 -25 8 -25 13 0 10 12 11 34 3z m-46 -102 c2 -7 -3 -12 -10
-12 -8 0 -15 7 -15 15 0 18 19 15 25 -3z m-78 -277 c0 -8 -4 -15 -10 -15 -5 0
-10 7 -10 15 0 8 5 15 10 15 6 0 10 -7 10 -15z m78 -93 c2 -7 -3 -12 -12 -12
-9 0 -16 7 -16 16 0 17 22 14 28 -4z m-28 -132 c-6 -11 -15 -20 -20 -20 -16 0
-11 18 8 29 24 14 24 14 12 -9z m40 -140 c0 -5 -4 -10 -10 -10 -5 0 -10 5 -10
10 0 6 5 10 10 10 6 0 10 -4 10 -10z"/>
<path d="M20190 15909 c0 -5 5 -7 10 -4 6 3 10 8 10 11 0 2 -4 4 -10 4 -5 0
-10 -5 -10 -11z"/>
<path d="M20150 15879 c0 -5 5 -7 10 -4 6 3 10 8 10 11 0 2 -4 4 -10 4 -5 0
-10 -5 -10 -11z"/>
<path d="M20280 15879 c0 -5 5 -7 10 -4 6 3 10 8 10 11 0 2 -4 4 -10 4 -5 0
-10 -5 -10 -11z"/>
<path d="M20270 15823 c0 -10 4 -14 8 -8 4 6 11 13 16 18 5 4 2 7 -7 7 -10 0
-17 -8 -17 -17z"/>
<path d="M20491 15624 c-18 -20 2 -45 21 -26 9 9 9 12 0 12 -6 0 -9 7 -6 15 8
19 3 19 -15 -1z"/>
<path d="M22945 15570 c-3 -5 -1 -10 4 -10 6 0 11 5 11 10 0 6 -2 10 -4 10 -3
0 -8 -4 -11 -10z"/>
<path d="M22915 15530 c-10 -16 18 -22 46 -10 19 8 20 9 4 8 -11 -2 -25 1 -32
5 -6 4 -14 3 -18 -3z"/>
<path d="M22910 15410 c0 -5 7 -10 16 -10 8 0 12 5 9 10 -3 6 -10 10 -16 10
-5 0 -9 -4 -9 -10z"/>
<path d="M22910 15349 c0 -5 5 -7 10 -4 6 3 10 8 10 11 0 2 -4 4 -10 4 -5 0
-10 -5 -10 -11z"/>
<path d="M15460 15320 c0 -5 5 -10 10 -10 6 0 10 5 10 10 0 6 -4 10 -10 10 -5
0 -10 -4 -10 -10z"/>
<path d="M22860 15320 c0 -5 7 -10 16 -10 8 0 12 5 9 10 -3 6 -10 10 -16 10
-5 0 -9 -4 -9 -10z"/>
<path d="M19970 15280 c0 -5 5 -10 11 -10 5 0 7 5 4 10 -3 6 -8 10 -11 10 -2
0 -4 -4 -4 -10z"/>
<path d="M22865 15160 c-3 -5 -1 -10 4 -10 6 0 11 5 11 10 0 6 -2 10 -4 10 -3
0 -8 -4 -11 -10z"/>
<path d="M15571 15124 c0 -11 3 -14 6 -6 3 7 2 16 -1 19 -3 4 -6 -2 -5 -13z"/>
<path d="M22880 15130 c0 -5 5 -10 10 -10 6 0 10 5 10 10 0 6 -4 10 -10 10 -5
0 -10 -4 -10 -10z"/>
<path d="M22801 15104 c0 -11 3 -14 6 -6 3 7 2 16 -1 19 -3 4 -6 -2 -5 -13z"/>
<path d="M15590 15070 c0 -5 5 -10 11 -10 5 0 7 5 4 10 -3 6 -8 10 -11 10 -2
0 -4 -4 -4 -10z"/>
<path d="M20110 15060 c0 -6 7 -10 15 -10 8 0 15 2 15 4 0 2 -7 6 -15 10 -8 3
-15 1 -15 -4z"/>
<path d="M15415 15050 c3 -5 8 -10 11 -10 2 0 4 5 4 10 0 6 -5 10 -11 10 -5 0
-7 -4 -4 -10z"/>
<path d="M15570 15010 c0 -5 5 -10 10 -10 6 0 10 5 10 10 0 6 -4 10 -10 10 -5
0 -10 -4 -10 -10z"/>
<path d="M22753 14963 c-20 -7 -15 -23 7 -23 11 0 20 4 20 9 0 13 -12 19 -27
14z"/>
<path d="M15590 14914 c0 -14 3 -14 15 -4 8 7 15 14 15 16 0 2 -7 4 -15 4 -8
0 -15 -7 -15 -16z"/>
<path d="M22755 14876 c0 -13 3 -22 8 -19 4 2 7 13 7 24 0 10 -3 19 -7 19 -5
0 -8 -11 -8 -24z"/>
<path d="M15625 14870 c3 -5 10 -10 16 -10 5 0 9 5 9 10 0 6 -7 10 -16 10 -8
0 -12 -4 -9 -10z"/>
<path d="M15700 14840 c-12 -8 -9 -10 13 -10 15 0 27 5 27 10 0 13 -20 13 -40
0z"/>
<path d="M15648 14823 c7 -3 16 -2 19 1 4 3 -2 6 -13 5 -11 0 -14 -3 -6 -6z"/>
<path d="M15560 14785 c7 -9 15 -13 17 -11 7 7 -7 26 -19 26 -6 0 -6 -6 2 -15z"/>
<path d="M22880 14789 c0 -5 5 -7 10 -4 6 3 10 8 10 11 0 2 -4 4 -10 4 -5 0
-10 -5 -10 -11z"/>
<path d="M24430 14768 c-1 -5 -3 -12 -4 -18 0 -5 -9 -18 -18 -30 -23 -26 -7
-27 16 -1 10 11 16 28 13 38 -3 10 -6 15 -7 11z"/>
<path d="M15667 14754 c-10 -10 25 -56 38 -50 7 2 17 0 23 -6 16 -16 36 0 21
18 -6 7 -15 11 -20 8 -5 -3 -9 2 -9 10 0 10 -6 13 -16 9 -9 -3 -19 -1 -23 6
-4 6 -10 8 -14 5z"/>
<path d="M15762 14751 c4 -13 18 -16 19 -4 0 4 -5 9 -11 12 -7 2 -11 -2 -8 -8z"/>
<path d="M15540 14741 c0 -12 15 -26 28 -27 25 -2 29 -4 29 -19 0 -8 -5 -15
-11 -15 -10 0 -12 -18 -7 -62 1 -5 5 -8 10 -8 5 0 11 18 15 40 3 23 13 43 21
46 8 4 15 10 15 16 0 5 -4 7 -10 3 -5 -3 -18 2 -29 12 -19 16 -61 26 -61 14z"/>
<path d="M20340 14714 c0 -7 27 -34 34 -34 4 0 1 9 -6 20 -12 19 -28 27 -28
14z"/>
<path d="M24450 14699 c0 -11 4 -18 10 -14 5 3 7 12 3 20 -7 21 -13 19 -13 -6z"/>
<path d="M22895 14690 c3 -5 8 -10 11 -10 2 0 4 5 4 10 0 6 -5 10 -11 10 -5 0
-7 -4 -4 -10z"/>
<path d="M15705 14680 c-3 -5 -1 -10 4 -10 6 0 11 5 11 10 0 6 -2 10 -4 10 -3
0 -8 -4 -11 -10z"/>
<path d="M24372 14670 c0 -14 2 -19 5 -12 2 6 2 18 0 25 -3 6 -5 1 -5 -13z"/>
<path d="M15799 14663 c0 -5 -2 -18 -5 -30 -3 -18 1 -23 16 -23 11 0 20 5 20
10 0 6 -5 10 -11 10 -6 0 -8 9 -4 20 4 11 2 20 -4 20 -6 0 -11 -3 -12 -7z"/>
<path d="M15737 14653 c-9 -9 -9 -43 1 -43 4 0 8 11 8 25 2 27 1 29 -9 18z"/>
<path d="M15675 14640 c-3 -5 -2 -10 4 -10 5 0 13 5 16 10 3 6 2 10 -4 10 -5
0 -13 -4 -16 -10z"/>
<path d="M24580 14629 c0 -5 5 -7 10 -4 6 3 10 8 10 11 0 2 -4 4 -10 4 -5 0
-10 -5 -10 -11z"/>
<path d="M20435 14620 c3 -5 10 -10 16 -10 5 0 9 5 9 10 0 6 -7 10 -16 10 -8
0 -12 -4 -9 -10z"/>
<path d="M24470 14610 c0 -5 5 -10 10 -10 6 0 10 5 10 10 0 6 -4 10 -10 10 -5
0 -10 -4 -10 -10z"/>
<path d="M22800 14596 c0 -2 7 -6 15 -10 8 -3 15 -1 15 4 0 6 -7 10 -15 10 -8
0 -15 -2 -15 -4z"/>
<path d="M15753 14583 c-7 -2 -13 -10 -13 -15 0 -6 3 -8 7 -5 3 4 12 2 19 -4
9 -8 11 -5 7 10 -3 12 -6 21 -7 20 0 0 -7 -3 -13 -6z"/>
<path d="M15837 14583 c-12 -12 -7 -22 8 -17 8 4 15 10 15 15 0 11 -14 12 -23
2z"/>
<path d="M24495 14580 c-3 -5 -1 -10 4 -10 6 0 11 5 11 10 0 6 -2 10 -4 10 -3
0 -8 -4 -11 -10z"/>
<path d="M20484 14565 c21 -16 32 -13 21 4 -3 6 -14 11 -23 11 -15 -1 -15 -2
2 -15z"/>
<path d="M22765 14567 c-5 -7 -12 -21 -13 -32 -4 -18 -2 -18 20 5 13 14 23 28
21 33 -6 10 -16 8 -28 -6z"/>
<path d="M24305 14570 c-3 -6 1 -7 9 -4 18 7 21 14 7 14 -6 0 -13 -4 -16 -10z"/>
<path d="M15828 14552 c-10 -2 -18 -8 -18 -13 0 -8 47 -3 58 6 7 5 -24 11 -40
7z"/>
<path d="M22556 14546 c3 -9 11 -16 16 -16 13 0 5 23 -10 28 -7 2 -10 -2 -6
-12z"/>
<path d="M24230 14538 c0 -12 3 -18 7 -15 3 4 12 2 19 -4 8 -7 14 -7 19 1 3 5
-1 10 -9 10 -9 0 -16 7 -16 15 0 8 -4 15 -10 15 -5 0 -10 -10 -10 -22z"/>
<path d="M22790 14526 c0 -16 25 -24 53 -18 32 8 19 32 -18 32 -24 0 -35 -5
-35 -14z"/>
<path d="M22925 14530 c-3 -5 -1 -10 4 -10 6 0 11 5 11 10 0 6 -2 10 -4 10 -3
0 -8 -4 -11 -10z"/>
<path d="M24560 14530 c0 -5 5 -10 10 -10 6 0 10 5 10 10 0 6 -4 10 -10 10 -5
0 -10 -4 -10 -10z"/>
<path d="M15657 14513 c-4 -3 -7 -13 -7 -22 1 -13 3 -13 11 2 11 19 8 33 -4
20z"/>
<path d="M15770 14505 c0 -8 6 -14 13 -12 6 1 11 -3 10 -8 -1 -6 6 -11 16 -11
10 0 18 6 18 13 0 7 -6 13 -14 13 -7 0 -13 5 -13 10 0 6 -7 10 -15 10 -8 0
-15 -7 -15 -15z"/>
<path d="M15855 14510 c-10 -17 28 -89 48 -90 10 0 17 7 17 19 0 14 -5 18 -20
14 -17 -5 -18 -1 -13 31 4 29 2 36 -10 36 -9 0 -19 -5 -22 -10z"/>
<path d="M24263 14484 c-18 -19 -33 -36 -33 -38 0 -2 11 -1 25 2 14 2 31 16
39 33 21 41 6 42 -31 3z"/>
<path d="M24368 14513 c6 -2 18 -2 25 0 6 3 1 5 -13 5 -14 0 -19 -2 -12 -5z"/>
<path d="M22853 14493 c-7 -2 -13 -11 -13 -19 0 -8 -6 -14 -14 -14 -17 0 -27
-33 -15 -51 6 -11 13 -11 27 -3 12 8 24 9 35 2 11 -6 17 -5 17 2 0 5 -6 10
-12 10 -8 0 -5 7 6 15 11 8 14 15 8 15 -7 0 -12 7 -12 15 0 8 5 15 11 15 5 0
7 5 4 10 -7 11 -22 12 -42 3z m27 -49 c0 -2 -7 -4 -15 -4 -8 0 -15 4 -15 10 0
5 7 7 15 4 8 -4 15 -8 15 -10z"/>
<path d="M24330 14485 c0 -8 5 -15 10 -15 6 0 10 7 10 15 0 8 -4 15 -10 15 -5
0 -10 -7 -10 -15z"/>
<path d="M24595 14490 c-3 -5 1 -10 9 -10 9 0 16 5 16 10 0 6 -4 10 -9 10 -6
0 -13 -4 -16 -10z"/>
<path d="M24680 14480 c0 -5 5 -10 11 -10 5 0 7 5 4 10 -3 6 -8 10 -11 10 -2
0 -4 -4 -4 -10z"/>
<path d="M20576 14465 c-9 -26 -7 -32 5 -12 6 10 9 21 6 23 -2 3 -7 -2 -11
-11z"/>
<path d="M24305 14439 c4 -40 11 -57 18 -48 7 8 -5 89 -13 89 -5 0 -7 -19 -5
-41z"/>
<path d="M24392 14455 c0 -16 2 -22 5 -12 2 9 2 23 0 30 -3 6 -5 -1 -5 -18z"/>
<path d="M22525 14450 c3 -5 11 -10 16 -10 6 0 7 5 4 10 -3 6 -11 10 -16 10
-6 0 -7 -4 -4 -10z"/>
<path d="M24183 14453 c-7 -3 -13 -11 -13 -18 0 -15 47 -48 53 -37 7 12 -27
59 -40 55z"/>
<path d="M24606 14435 c-6 -18 2 -24 24 -18 29 8 32 31 5 31 -13 0 -26 -6 -29
-13z"/>
<path d="M24510 14436 c0 -2 7 -9 15 -16 9 -7 15 -8 15 -2 0 5 -7 12 -15 16
-8 3 -15 4 -15 2z"/>
<path d="M15714 14412 c-12 -29 -14 -52 -5 -52 5 0 16 -3 25 -6 13 -5 16 1 16
29 0 38 -23 57 -36 29z"/>
<path d="M22900 14421 c0 -6 5 -13 10 -16 6 -3 10 1 10 9 0 9 -4 16 -10 16 -5
0 -10 -4 -10 -9z"/>
<path d="M15774 14398 c-4 -6 1 -17 11 -25 22 -15 39 -17 30 -3 -3 6 -13 10
-21 10 -17 0 -19 16 -1 23 9 4 9 6 0 6 -6 1 -15 -4 -19 -11z"/>
<path d="M24358 14396 c-26 -20 -22 -26 17 -26 33 0 35 2 25 20 -12 23 -19 24
-42 6z"/>
<path d="M24490 14399 c0 -5 5 -7 10 -4 6 3 10 8 10 11 0 2 -4 4 -10 4 -5 0
-10 -5 -10 -11z"/>
<path d="M23085 14390 c-3 -5 1 -10 10 -10 9 0 13 5 10 10 -3 6 -8 10 -10 10
-2 0 -7 -4 -10 -10z"/>
<path d="M15890 14380 c0 -5 5 -10 10 -10 6 0 10 5 10 10 0 6 -4 10 -10 10 -5
0 -10 -4 -10 -10z"/>
<path d="M22908 14383 c-18 -4 -33 -33 -18 -33 6 0 10 4 10 9 0 5 10 11 23 13
12 2 18 6 12 9 -5 3 -17 4 -27 2z"/>
<path d="M24285 14380 c-3 -5 -1 -10 4 -10 6 0 11 5 11 10 0 6 -2 10 -4 10 -3
0 -8 -4 -11 -10z"/>
<path d="M24661 14374 c0 -11 3 -14 6 -6 3 7 2 16 -1 19 -3 4 -6 -2 -5 -13z"/>
<path d="M15946 14372 c-4 -7 -26 -12 -49 -12 -34 0 -38 -2 -25 -12 25 -20 27
-41 7 -64 -19 -21 -19 -21 26 -21 29 0 52 -6 65 -18 18 -16 24 -14 21 7 0 4 7
4 17 1 13 -5 11 1 -7 21 -15 16 -27 22 -31 16 -5 -7 -11 -6 -19 4 -10 12 -8
17 8 26 28 14 27 29 -1 23 -17 -3 -19 -2 -9 5 7 5 11 16 9 23 -3 10 -6 10 -12
1z"/>
<path d="M24155 14366 c19 -16 19 -17 -20 -13 -22 2 -48 7 -57 11 -15 7 -18 3
-18 -23 0 -17 5 -31 11 -31 6 0 9 6 6 14 -4 10 0 14 13 13 10 -1 21 -9 23 -19
5 -19 34 -35 44 -24 4 3 -2 13 -13 20 -10 8 -16 17 -12 21 12 13 44 -20 42
-44 -1 -13 -12 -32 -25 -42 -17 -13 -19 -19 -9 -19 12 0 12 -2 2 -9 -8 -4 -13
-11 -13 -15 1 -3 -2 -6 -6 -6 -4 0 -8 6 -8 13 -2 25 -18 47 -35 47 -10 0 -20
4 -22 8 -1 5 -20 12 -40 15 -34 5 -39 3 -44 -19 -4 -16 -12 -23 -20 -20 -18 7
-24 -5 -26 -56 -1 -39 -11 -57 -30 -58 -9 0 -5 36 5 46 12 12 8 24 -8 24 -8 0
-15 -6 -15 -14 0 -19 -26 -40 -35 -26 -10 16 -25 12 -25 -6 0 -14 -3 -14 -15
-4 -8 7 -15 8 -15 2 0 -5 -9 -12 -20 -15 -11 -3 -20 -14 -20 -24 0 -10 -6 -25
-12 -33 -7 -8 -4 -7 8 3 27 22 34 21 34 -2 0 -11 -10 -27 -21 -35 -19 -13 -24
-13 -45 1 -13 8 -24 22 -24 29 0 23 -19 16 -26 -10 -3 -13 -16 -28 -30 -35
-13 -6 -24 -16 -24 -22 0 -8 -4 -8 -14 0 -19 16 -56 -15 -56 -46 0 -13 -6 -23
-14 -23 -9 0 -12 -8 -8 -27 l5 -26 -26 19 c-26 19 -26 19 -7 33 24 16 26 41 4
41 -8 0 -12 5 -9 10 12 19 -26 23 -40 4 -11 -15 -18 -17 -32 -8 -13 8 -27 8
-53 -2 -19 -7 -29 -13 -22 -13 6 -1 12 -4 12 -8 0 -5 -22 -8 -49 -9 -28 0 -48
3 -46 7 3 4 -6 9 -20 11 -14 3 -25 2 -25 -2 0 -5 -9 -6 -20 -3 -12 3 -20 0
-20 -7 0 -9 -7 -7 -22 6 -21 19 -21 19 -16 -3 4 -16 2 -23 -8 -23 -8 0 -11 6
-7 16 5 12 2 15 -13 11 -54 -16 -74 -19 -74 -8 0 6 -12 11 -26 11 -14 0 -23
-4 -19 -10 3 -5 1 -10 -4 -10 -6 0 -11 5 -11 10 0 6 -9 10 -20 10 -25 0 -26
16 -2 29 15 9 15 10 -5 11 -13 0 -23 -4 -23 -8 0 -5 -15 -16 -34 -25 -30 -14
-35 -14 -40 -1 -3 9 -11 12 -18 8 -14 -9 -121 -5 -128 4 -3 4 -21 14 -40 23
-26 12 -41 14 -57 6 -27 -12 -29 -22 -8 -31 19 -7 35 -47 25 -61 -18 -24 -17
-68 1 -86 20 -20 26 -45 10 -34 -6 3 -15 -4 -22 -16 -9 -18 -8 -24 5 -31 13
-7 14 -13 6 -29 -6 -11 -8 -24 -5 -29 3 -5 -3 -14 -12 -19 -16 -10 -17 -12 -2
-23 9 -7 14 -19 11 -27 -3 -9 0 -12 10 -9 11 5 14 0 10 -18 -3 -15 -11 -24
-23 -24 -11 0 -19 -4 -19 -10 0 -20 24 -60 37 -60 7 0 13 -5 13 -11 0 -6 -7
-8 -16 -5 -12 5 -14 1 -9 -15 5 -16 4 -19 -6 -14 -9 6 -11 2 -6 -16 4 -13 7
-30 7 -36 0 -7 9 -13 20 -13 21 0 24 -8 14 -34 -5 -13 -9 -12 -24 7 -19 22
-19 22 -10 -18 7 -31 6 -42 -5 -48 -11 -6 -12 -14 -5 -32 5 -13 7 -39 5 -56
-5 -37 4 -57 15 -39 9 15 26 6 40 -20 9 -16 8 -18 -5 -14 -9 4 -22 -1 -30 -12
-17 -23 -20 -104 -4 -104 6 0 9 -9 6 -20 -3 -11 -1 -23 4 -26 5 -3 9 0 9 5 0
6 6 11 14 11 8 0 17 6 20 13 3 6 3 1 0 -11 -5 -21 -4 -23 15 -13 24 13 28 41
6 41 -8 0 -15 7 -15 15 0 13 -19 20 -43 16 -5 -1 -7 4 -5 10 8 23 47 19 72 -6
14 -14 25 -28 25 -30 0 -3 2 -11 4 -18 3 -6 6 3 6 21 1 35 11 41 31 17 9 -10
9 -15 1 -15 -6 0 -11 -5 -11 -11 0 -7 7 -8 18 -4 9 4 29 7 44 6 21 -1 25 2 21
19 -4 14 1 22 20 29 14 6 27 18 30 28 4 17 5 17 6 1 1 -22 0 -22 39 -2 32 15
46 41 17 30 -21 -8 -19 11 3 23 16 10 16 10 0 11 -10 0 -18 5 -18 11 0 5 4 8
9 4 11 -6 28 22 27 44 -1 8 -8 16 -16 18 -12 4 -12 3 -2 -5 11 -7 11 -10 -2
-15 -9 -4 -16 -2 -16 3 0 6 -8 10 -17 10 -15 0 -16 2 -3 10 12 8 9 10 -12 10
-20 0 -26 -4 -22 -14 3 -8 -3 -19 -16 -26 -38 -20 -43 -5 -9 28 31 31 32 32
10 32 -19 0 -22 4 -17 24 5 20 3 23 -13 19 -13 -3 -17 -11 -14 -24 4 -14 1
-18 -10 -13 -8 3 -17 0 -20 -8 -2 -7 -3 -1 -1 15 2 18 -1 27 -10 27 -8 0 -17
7 -20 16 -9 23 -7 28 7 17 19 -16 49 -11 55 9 2 10 8 15 13 13 4 -3 6 -12 3
-19 -3 -8 7 -18 24 -25 16 -7 35 -23 42 -36 10 -18 21 -23 49 -23 65 0 66 0
46 -22 -10 -11 -13 -20 -8 -20 6 0 16 7 23 15 17 21 33 8 25 -22 -5 -22 -4
-23 14 -13 11 6 18 17 15 24 -3 8 0 16 8 19 7 2 5 3 -5 1 -13 -2 -17 2 -13 13
3 8 6 21 6 29 0 8 7 14 15 14 9 0 15 9 15 22 0 16 3 19 11 11 6 -6 23 -8 42
-3 62 15 73 23 68 53 0 4 4 7 10 7 5 0 8 4 5 9 -20 31 30 58 63 34 30 -20 26
-6 -8 32 -26 30 -30 31 -34 14 -3 -12 -14 -19 -30 -19 -14 0 -27 -7 -30 -14
-4 -11 -1 -13 10 -9 11 4 14 2 9 -5 -4 -7 -15 -12 -24 -12 -13 0 -14 -2 -3 -9
10 -7 11 -13 2 -27 -6 -11 -11 -14 -11 -7 0 6 -18 14 -41 18 -22 4 -43 13 -46
21 -5 15 -33 20 -33 6 0 -13 40 -43 50 -37 5 3 11 1 15 -4 3 -6 13 -7 21 -4
12 4 15 1 12 -13 -4 -20 -35 -24 -71 -9 -16 7 -17 4 -11 -20 6 -24 4 -27 -10
-22 -10 4 -22 7 -28 7 -6 0 -4 8 5 18 10 11 14 26 10 40 -4 18 -10 21 -31 15
-17 -4 -23 -2 -18 6 4 6 13 11 21 11 25 0 25 18 0 22 -13 3 -22 1 -19 -3 3 -5
-1 -6 -8 -4 -8 3 -14 23 -15 46 -2 32 1 40 12 35 8 -3 15 -1 15 4 0 6 7 10 16
10 8 0 12 -4 9 -10 -3 -5 -1 -10 6 -10 7 0 9 10 6 30 -5 23 -3 30 9 30 9 0 14
-7 12 -17 -2 -14 4 -18 27 -17 22 0 29 5 27 17 -2 11 4 17 18 17 23 0 27 15 5
24 -8 3 -15 13 -15 22 0 10 -8 26 -17 36 -13 14 -14 21 -5 30 9 9 12 7 12 -8
1 -19 22 -54 33 -54 3 0 13 7 22 16 12 13 19 13 30 4 12 -10 12 -16 3 -34 -7
-11 -12 -25 -13 -29 0 -4 -7 -12 -15 -17 -13 -8 -13 -10 2 -10 9 0 21 6 25 14
4 8 20 16 35 18 15 2 31 7 35 12 4 4 3 7 -2 6 -30 -6 -38 1 -19 16 13 11 15
17 7 20 -24 10 -13 19 22 19 23 1 35 -4 35 -13 0 -7 4 -11 9 -8 5 3 12 -1 15
-10 10 -26 -1 -28 -21 -5 -9 12 -21 21 -25 21 -16 0 -7 -21 16 -41 15 -13 22
-27 18 -38 -5 -14 -3 -14 10 -3 9 7 19 9 21 5 8 -12 -4 -28 -25 -36 -10 -3
-18 -11 -18 -17 0 -19 18 -10 45 22 22 26 30 30 45 21 13 -9 21 -8 36 5 18 16
18 16 1 -4 -24 -29 -21 -35 15 -29 20 4 34 1 39 -7 4 -7 11 -9 15 -6 3 4 -6
22 -20 39 -30 36 -20 54 21 38 16 -6 23 -5 23 4 1 6 9 2 20 -11 17 -21 19 -21
29 -5 5 10 13 15 17 11 4 -4 1 -15 -7 -24 -13 -16 -12 -16 9 -5 22 12 30 31
13 31 -19 0 -7 39 14 45 12 4 15 8 8 12 -21 8 -15 26 7 20 10 -3 21 -2 23 2 2
3 2 0 0 -7 -4 -17 21 -42 41 -42 8 0 18 9 21 20 3 11 11 20 17 20 5 0 8 -7 4
-15 -10 -26 47 -18 72 10 12 14 22 28 21 33 -1 14 33 28 38 15 3 -7 13 -13 23
-13 11 0 24 -8 29 -17 9 -16 10 -17 11 -1 0 9 -9 20 -21 23 -11 4 -18 12 -16
18 2 7 0 21 -5 32 -8 18 -8 18 5 3 8 -10 18 -13 26 -8 11 6 10 10 -4 18 -10 5
-15 14 -11 21 6 9 11 9 22 0 9 -7 14 -8 14 -1 0 6 3 17 6 26 5 13 2 14 -25 5
-17 -6 -31 -16 -32 -22 0 -7 -4 -3 -9 8 -7 19 -9 18 -19 -7 -6 -16 -15 -28
-21 -28 -10 0 2 28 26 60 7 8 14 23 15 33 2 10 8 17 13 17 5 -1 13 4 18 12 6
10 15 6 38 -19 16 -18 32 -28 35 -23 3 6 1 10 -4 10 -6 0 -11 7 -11 15 0 8 -5
15 -11 15 -5 0 -8 4 -4 10 3 5 13 7 23 4 12 -4 13 -3 4 3 -22 16 -3 39 43 51
43 11 56 24 36 36 -5 3 -14 -1 -21 -9 -17 -20 -32 -19 -28 3 1 9 -2 17 -7 17
-6 0 -10 -10 -9 -23 0 -12 -5 -21 -10 -19 -19 7 -6 60 20 84 25 23 24 49 -1
39 -8 -3 -12 4 -11 20 1 23 16 36 16 14 0 -5 7 -10 15 -10 8 0 15 -7 15 -15 0
-8 2 -15 4 -15 11 0 69 29 59 30 -7 0 -13 5 -13 11 0 5 4 8 9 5 5 -4 17 -3 26
0 13 5 15 14 10 40 -6 33 -5 34 27 33 25 -1 27 -3 10 -6 -20 -4 -22 -8 -16
-36 3 -18 12 -35 18 -39 6 -4 -4 -8 -21 -8 -39 0 -44 -17 -8 -26 31 -8 55 13
55 47 0 6 6 9 14 6 18 -7 54 18 43 30 -5 4 -13 0 -18 -9 -10 -19 -60 -11 -67
11 -3 9 2 11 16 7 16 -5 21 -1 27 21 5 15 8 31 7 35 -1 4 8 10 19 13 16 5 18
10 8 21 -8 10 -8 14 0 14 6 0 11 7 11 15 0 24 -20 17 -30 -10 -11 -28 -35 -33
-44 -9 -9 24 -8 26 14 14 16 -9 18 -8 14 5 -4 8 -12 15 -20 15 -8 0 -14 5 -14
10 0 6 4 10 9 10 5 0 11 9 14 20 5 19 8 18 41 -12 26 -23 34 -37 30 -51 -4
-13 0 -20 16 -24 12 -3 19 -11 16 -19 -3 -7 -1 -16 3 -19 5 -2 11 4 14 16 4
14 -1 23 -16 29 -19 7 -20 9 -5 15 9 4 24 18 33 31 15 24 15 24 -7 19 -28 -7
-97 20 -105 40 -9 24 -40 18 -47 -10 -4 -14 -11 -25 -16 -25 -14 0 -13 13 2
28 8 8 9 12 1 12 -6 0 -20 3 -30 6 -16 6 -16 5 2 -10z m-85 -166 c0 -5 -7 -10
-16 -10 -8 0 -12 5 -9 10 3 6 10 10 16 10 5 0 9 -4 9 -10z m40 -15 c0 -7 7
-15 15 -19 22 -8 18 -21 -12 -37 -16 -8 -32 -18 -36 -24 -5 -6 -7 -4 -4 5 2 8
0 26 -5 39 -8 21 -7 22 7 11 8 -7 19 -10 22 -6 4 4 1 11 -6 16 -8 4 -11 15 -8
25 8 18 27 11 27 -10z m-232 -119 c-10 -11 -21 -16 -25 -12 -4 4 -2 10 5 15 8
5 6 11 -7 23 -18 15 -20 15 -25 1 -4 -9 -9 -13 -13 -10 -3 4 0 13 6 21 11 13
17 13 45 -2 32 -16 32 -17 14 -36z m60 38 c12 -22 3 -64 -14 -64 -17 0 -18 32
-2 48 10 10 10 15 -2 22 -9 6 -10 10 -3 10 7 0 16 -7 21 -16z m62 -24 c0 -5
-4 -10 -10 -10 -5 0 -10 5 -10 10 0 6 5 10 10 10 6 0 10 -4 10 -10z m-300 -71
c0 -10 -5 -21 -11 -24 -6 -4 -8 -13 -5 -20 3 -8 -3 -19 -12 -27 -15 -12 -16
-11 -3 5 7 9 9 17 3 17 -5 0 -12 11 -14 25 -5 25 7 35 15 13 2 -7 8 -9 13 -5
5 5 1 14 -9 22 -11 8 -15 19 -11 30 7 17 8 17 21 -1 7 -10 13 -26 13 -35z
m150 25 c0 -4 -7 -12 -16 -18 -12 -9 -13 -17 -4 -40 6 -16 8 -31 6 -34 -8 -8
-36 19 -30 29 3 5 -4 9 -15 9 -25 0 -26 -4 -5 -25 10 -9 16 -32 16 -53 -1 -31
5 -41 29 -57 32 -22 38 -34 14 -31 -9 1 -22 12 -31 24 -8 12 -22 22 -30 22
-21 0 -14 -30 11 -44 23 -12 35 -26 35 -40 0 -6 -5 -5 -11 1 -6 6 -18 9 -25 6
-9 -3 -14 2 -14 12 0 9 -8 19 -19 22 -19 5 -48 53 -31 53 5 0 7 9 5 21 -2 11
3 32 11 45 9 13 14 31 10 39 -3 10 1 15 12 16 10 0 12 3 5 6 -17 6 -17 26 -1
21 7 -3 24 1 38 9 28 14 40 16 40 7z m114 -20 c3 -8 2 -12 -4 -9 -6 3 -10 10
-10 16 0 14 7 11 14 -7z m-49 -14 c-8 -24 18 -38 39 -21 19 16 35 -11 28 -45
-6 -31 -28 -31 -36 1 -6 25 -46 37 -46 14 0 -6 7 -8 16 -5 9 3 12 2 9 -5 -4
-5 -2 -16 4 -22 7 -10 1 -18 -24 -32 -19 -10 -35 -22 -35 -26 0 -4 -11 -2 -25
4 -32 15 -31 23 3 41 l27 15 -25 1 c-14 1 -19 4 -12 7 6 2 12 11 12 19 0 8 5
14 10 14 6 0 10 -5 10 -11 0 -5 5 -7 10 -4 14 9 -7 35 -26 35 -8 0 -14 6 -14
14 0 15 31 17 41 2 9 -11 31 3 24 15 -4 5 -1 9 5 9 7 0 9 -8 5 -20z m-293 -43
c-21 -7 -34 -18 -38 -34 -9 -33 -29 -23 -29 14 0 31 1 31 50 31 49 -1 49 -1
17 -11z m89 -20 c-10 -9 -11 -8 -5 6 3 10 9 15 12 12 3 -3 0 -11 -7 -18z
m-276 3 c3 -5 -1 -10 -10 -10 -9 0 -13 5 -10 10 3 6 8 10 10 10 2 0 7 -4 10
-10z m175 -31 c0 -5 -4 -9 -10 -9 -5 0 -10 7 -10 16 0 8 5 12 10 9 6 -3 10
-10 10 -16z m-906 -4 c3 -8 1 -15 -4 -15 -6 0 -10 7 -10 15 0 8 2 15 4 15 2 0
6 -7 10 -15z m975 -36 c-18 -14 -19 -17 -5 -28 20 -17 10 -34 -15 -26 -13 4
-21 1 -26 -10 -5 -15 -7 -15 -15 -2 -5 10 -17 14 -33 11 -19 -3 -23 -1 -19 11
7 17 35 20 50 5 6 -6 18 -8 28 -4 16 6 16 8 -1 26 -13 15 -14 19 -3 16 11 -2
14 5 13 25 -2 27 -2 27 22 10 24 -18 24 -18 4 -34z m-239 15 c0 -14 -3 -14
-15 -4 -8 7 -15 14 -15 16 0 2 7 4 15 4 8 0 15 -7 15 -16z m66 -69 c1 -8 -4
-15 -11 -15 -7 0 -12 8 -10 18 2 9 4 19 4 21 2 9 15 -10 17 -24z m54 -40 c0
-8 -4 -15 -10 -15 -5 0 -10 7 -10 15 0 8 5 15 10 15 6 0 10 -7 10 -15z m-180
-11 c0 -2 -7 -4 -15 -4 -8 0 -15 4 -15 10 0 5 7 7 15 4 8 -4 15 -8 15 -10z
m384 -25 c-6 -11 -24 -2 -24 11 0 5 7 7 15 4 8 -4 12 -10 9 -15z m-139 1 c-3
-5 -10 -10 -16 -10 -5 0 -9 5 -9 10 0 6 7 10 16 10 8 0 12 -4 9 -10z m-275 -4
c0 -3 -4 -8 -10 -11 -5 -3 -10 -1 -10 4 0 6 5 11 10 11 6 0 10 -2 10 -4z
m-455 -37 c-3 -4 -12 -6 -20 -3 -8 4 -13 10 -10 15 3 4 12 6 20 3 8 -4 13 -10
10 -15z m345 1 c0 -4 -9 -6 -21 -3 -15 4 -17 8 -8 14 14 8 29 3 29 -11z m-63
-15 c0 -8 -4 -15 -9 -15 -5 0 -6 -4 -3 -10 3 -5 2 -10 -4 -10 -27 0 -16 38 15
50 0 0 1 -7 1 -15z m93 5 c0 -5 -5 -10 -11 -10 -5 0 -7 5 -4 10 3 6 8 10 11
10 2 0 4 -4 4 -10z m490 6 c0 -2 -9 -6 -20 -9 -11 -3 -20 -1 -20 4 0 5 9 9 20
9 11 0 20 -2 20 -4z m-224 -41 c-3 -8 -10 -15 -15 -15 -7 0 -6 10 1 26 12 26
25 16 14 -11z m-306 15 c0 -5 -7 -10 -16 -10 -8 0 -12 5 -9 10 3 6 10 10 16
10 5 0 9 -4 9 -10z m-415 -10 c3 -5 1 -10 -4 -10 -6 0 -11 5 -11 10 0 6 2 10
4 10 3 0 8 -4 11 -10z m135 -14 c0 -7 4 -6 9 3 5 8 11 9 15 3 4 -7 17 -7 39
-1 17 5 33 9 34 9 2 0 3 -18 3 -40 0 -22 -4 -40 -10 -40 -5 0 -10 5 -10 10 0
6 -7 10 -15 10 -8 0 -15 -4 -15 -10 0 -5 -7 -10 -15 -10 -14 0 -20 12 -16 33
1 4 -7 7 -16 5 -12 -2 -17 3 -15 15 2 9 -2 17 -8 17 -5 0 -10 4 -10 10 0 5 7
7 15 4 8 -4 15 -11 15 -18z m465 -16 c-3 -5 -13 -10 -21 -10 -8 0 -14 5 -14
10 0 6 9 10 21 10 11 0 17 -4 14 -10z m-525 -21 c0 -5 -4 -9 -10 -9 -5 0 -10
7 -10 16 0 8 5 12 10 9 6 -3 10 -10 10 -16z m710 17 c0 -2 -7 -6 -15 -10 -8
-3 -15 -1 -15 4 0 6 7 10 15 10 8 0 15 -2 15 -4z m-763 -23 c2 -6 -11 -13 -29
-15 -18 -3 -37 -7 -43 -9 -5 -2 -10 1 -11 6 -1 10 54 34 70 31 6 -1 11 -7 13
-13z m83 -13 c0 -5 -2 -10 -4 -10 -3 0 -8 5 -11 10 -3 6 -1 10 4 10 6 0 11 -4
11 -10z m188 -36 c-10 -10 -28 6 -28 24 0 15 1 15 17 -1 9 -9 14 -19 11 -23z
m-308 16 c0 -5 -2 -10 -4 -10 -3 0 -8 5 -11 10 -3 6 -1 10 4 10 6 0 11 -4 11
-10z m-100 -10 c0 -5 -4 -10 -10 -10 -5 0 -10 5 -10 10 0 6 5 10 10 10 6 0 10
-4 10 -10z m250 0 c0 -5 -4 -10 -10 -10 -5 0 -10 5 -10 10 0 6 5 10 10 10 6 0
10 -4 10 -10z m60 6 c0 -3 -4 -8 -10 -11 -5 -3 -10 -1 -10 4 0 6 5 11 10 11 6
0 10 -2 10 -4z m-249 -99 c-1 -12 -15 -9 -19 4 -3 6 1 10 8 8 6 -3 11 -8 11
-12z m195 -23 c14 5 15 4 5 -8 -9 -11 -9 -16 0 -21 8 -6 7 -10 -2 -16 -9 -5
-16 -3 -20 9 -3 10 -16 17 -30 17 -14 0 -24 6 -24 15 -1 22 28 31 42 13 7 -9
19 -13 29 -9z m-104 4 c-14 -14 -42 -20 -42 -8 0 5 8 11 18 13 31 8 36 7 24
-5z m-52 -24 c0 -8 -5 -12 -10 -9 -6 4 -8 11 -5 16 9 14 15 11 15 -7z m37 -26
c-3 -8 -6 -5 -6 6 -1 11 2 17 5 13 3 -3 4 -12 1 -19z m-160 -23 c0 -8 -4 -15
-9 -15 -10 0 -11 14 -1 23 9 10 10 9 10 -8z m70 -11 c-3 -3 -12 -4 -19 -1 -8
3 -5 6 6 6 11 1 17 -2 13 -5z m-56 -27 c-1 -12 -15 -9 -19 4 -3 6 1 10 8 8 6
-3 11 -8 11 -12z m317 1 c18 -18 15 -38 -6 -38 -11 0 -24 11 -30 25 -10 22 -9
25 6 25 10 0 23 -5 30 -12z m-43 -28 c3 -6 -1 -13 -10 -16 -19 -8 -30 0 -20
15 8 14 22 14 30 1z m-335 -30 c0 -5 -5 -10 -11 -10 -5 0 -7 5 -4 10 3 6 8 10
11 10 2 0 4 -4 4 -10z m150 -49 c0 -9 -7 -11 -24 -7 -14 3 -28 2 -31 -4 -3 -5
-11 -10 -17 -10 -6 0 -1 9 11 19 14 12 18 22 11 26 -6 3 -8 11 -5 16 8 12 54
-22 55 -40z m55 29 c-3 -5 -11 -10 -16 -10 -6 0 -7 5 -4 10 3 6 11 10 16 10 6
0 7 -4 4 -10z m-179 -57 c-10 -10 -19 5 -10 18 6 11 8 11 12 0 2 -7 1 -15 -2
-18z m154 23 c0 -3 -4 -8 -10 -11 -5 -3 -10 -1 -10 4 0 6 5 11 10 11 6 0 10
-2 10 -4z m106 -21 c-3 -8 -1 -15 5 -15 6 0 7 -5 4 -10 -5 -8 -11 -7 -21 1
-11 9 -11 15 -3 25 15 18 23 18 15 -1z m-146 -10 c10 -12 10 -15 -4 -15 -9 0
-16 7 -16 15 0 8 2 15 4 15 2 0 9 -7 16 -15z m-70 -25 c0 -5 -4 -10 -10 -10
-5 0 -10 5 -10 10 0 6 5 10 10 10 6 0 10 -4 10 -10z m170 -29 c0 -16 -14 -20
-27 -10 -9 9 -13 8 -13 0 0 -6 -7 -11 -15 -11 -8 0 -15 5 -15 11 0 8 -5 8 -15
-1 -13 -11 -15 -8 -15 13 0 21 6 26 28 29 26 3 72 -17 72 -31z m-160 -15 c0
-11 -19 -15 -25 -6 -3 5 1 10 9 10 9 0 16 -2 16 -4z m50 -25 c0 -6 -4 -13 -10
-16 -5 -3 -10 1 -10 9 0 9 5 16 10 16 6 0 10 -4 10 -9z m57 -40 c10 -6 14 -10
8 -10 -19 0 -45 26 -44 45 0 17 1 16 9 -3 5 -12 17 -26 27 -32z"/>
<path d="M23757 13926 c-14 -11 -15 -15 -4 -19 15 -5 37 10 37 25 0 12 -12 9
-33 -6z"/>
<path d="M23885 13920 c-3 -6 1 -7 9 -4 18 7 21 14 7 14 -6 0 -13 -4 -16 -10z"/>
<path d="M23002 13628 c6 -18 28 -21 28 -4 0 9 -7 16 -16 16 -9 0 -14 -5 -12
-12z"/>
<path d="M24885 14360 c3 -5 11 -10 16 -10 6 0 7 5 4 10 -3 6 -11 10 -16 10
-6 0 -7 -4 -4 -10z"/>
<path d="M23170 14350 c0 -5 5 -10 10 -10 6 0 10 5 10 10 0 6 -4 10 -10 10 -5
0 -10 -4 -10 -10z"/>
<path d="M24620 14345 c0 -8 5 -15 10 -15 6 0 10 7 10 15 0 8 -4 15 -10 15 -5
0 -10 -7 -10 -15z"/>
<path d="M20687 14329 c6 -22 23 -26 23 -5 0 8 -6 16 -14 19 -10 4 -12 0 -9
-14z"/>
<path d="M22960 14335 c0 -18 -20 -20 -21 -2 0 6 -5 2 -11 -10 -6 -13 -17 -23
-25 -23 -7 0 -13 -10 -13 -22 l1 -23 18 22 c11 13 32 28 47 33 24 9 31 8 41
-6 7 -10 16 -15 19 -11 4 4 1 13 -5 21 -7 8 -10 20 -6 26 4 6 -4 10 -19 10
-16 0 -26 -6 -26 -15z"/>
<path d="M24666 14335 c-3 -9 0 -15 10 -15 10 0 14 -6 10 -15 -3 -8 -1 -15 4
-15 11 0 12 6 4 38 -7 25 -19 29 -28 7z"/>
<path d="M22861 14318 c0 -16 2 -18 6 -8 3 8 11 18 17 22 7 5 4 8 -6 8 -12 0
-18 -7 -17 -22z"/>
<path d="M23040 14330 c0 -5 5 -10 10 -10 6 0 10 5 10 10 0 6 -4 10 -10 10 -5
0 -10 -4 -10 -10z"/>
<path d="M24392 14328 c2 -6 12 -12 22 -14 14 -2 15 0 5 12 -14 17 -32 19 -27
2z"/>
<path d="M24445 14293 c-3 -12 -17 -28 -33 -35 -21 -11 -27 -20 -25 -42 2 -31
-13 -52 -43 -58 -14 -3 -22 5 -30 27 -10 24 -13 27 -19 13 -7 -17 19 -63 42
-72 7 -3 19 1 27 9 8 8 22 15 31 15 9 0 25 9 37 20 20 19 20 21 4 38 -16 19
-13 52 5 52 5 0 9 7 9 15 0 8 6 15 14 15 8 0 16 6 19 14 4 10 0 14 -13 13 -11
-1 -21 -11 -25 -24z"/>
<path d="M24573 14296 c-22 -20 -26 -27 -15 -37 10 -11 12 -10 12 4 0 9 10 25
22 37 31 28 15 25 -19 -4z"/>
<path d="M24830 14310 c0 -5 5 -10 10 -10 6 0 10 5 10 10 0 6 -4 10 -10 10 -5
0 -10 -4 -10 -10z"/>
<path d="M23280 14300 c0 -5 5 -10 10 -10 6 0 10 5 10 10 0 6 -4 10 -10 10 -5
0 -10 -4 -10 -10z"/>
<path d="M22810 14288 c0 -4 9 -8 20 -8 11 0 20 4 20 9 0 6 -9 9 -20 8 -11 -1
-20 -5 -20 -9z"/>
<path d="M24080 14285 c12 -15 30 -12 30 6 0 5 -10 9 -21 9 -18 0 -19 -2 -9
-15z"/>
<path d="M24363 14277 c0 -16 5 -27 13 -27 8 0 14 4 14 8 0 5 -6 17 -14 27
-13 18 -13 17 -13 -8z"/>
<path d="M24510 14286 c0 -22 17 -28 24 -10 9 22 8 24 -9 24 -8 0 -15 -6 -15
-14z"/>
<path d="M22754 14264 c3 -9 6 -18 6 -20 0 -2 7 -4 15 -4 18 0 19 12 3 28 -17
17 -31 15 -24 -4z"/>
<path d="M23018 14273 c-26 -6 -22 -20 5 -19 12 1 21 -4 20 -10 -1 -7 6 -10
18 -7 19 5 19 7 3 24 -9 11 -20 18 -23 18 -3 -1 -14 -3 -23 -6z"/>
<path d="M15730 14248 c0 -19 2 -20 10 -8 13 19 13 30 0 30 -5 0 -10 -10 -10
-22z"/>
<path d="M24110 14260 c0 -5 5 -10 10 -10 6 0 10 5 10 10 0 6 -4 10 -10 10 -5
0 -10 -4 -10 -10z"/>
<path d="M24472 14244 c-15 -17 -15 -24 1 -24 8 0 13 -16 13 -50 1 -51 -4 -58
-23 -39 -8 8 -13 8 -17 0 -4 -6 -4 -11 0 -11 3 0 1 -6 -6 -14 -6 -8 -19 -12
-27 -9 -11 4 -14 2 -9 -5 12 -19 47 -14 53 8 4 15 9 17 23 10 26 -14 26 -15
25 38 -1 26 3 52 7 58 4 6 0 20 -10 31 -14 17 -19 18 -30 7z"/>
<path d="M24580 14251 c0 -17 18 -21 24 -6 3 9 0 15 -9 15 -8 0 -15 -4 -15 -9z"/>
<path d="M22939 14226 c15 -18 10 -39 -11 -48 -11 -4 -15 -14 -11 -27 7 -28
23 -27 23 2 l1 22 13 -24 c11 -19 14 -21 19 -7 3 8 2 18 -3 21 -12 7 -13 26
-2 23 13 -5 13 11 0 32 -7 11 -19 20 -27 20 -10 0 -11 -3 -2 -14z"/>
<path d="M22570 14210 c0 -5 5 -10 10 -10 6 0 10 5 10 10 0 6 -4 10 -10 10 -5
0 -10 -4 -10 -10z"/>
<path d="M24554 14212 c-12 -7 -11 -39 2 -50 4 -4 4 0 2 8 -3 8 1 23 10 33 15
17 7 23 -14 9z"/>
<path d="M15830 14185 c0 -15 26 -32 36 -23 2 3 2 13 -2 22 -8 20 -34 21 -34
1z"/>
<path d="M16002 14177 c-13 -14 -20 -27 -15 -30 65 -39 83 -46 83 -32 0 8 -7
15 -16 15 -11 0 -15 6 -11 20 3 11 1 18 -3 15 -5 -3 -10 4 -12 16 -3 20 -3 20
-26 -4z"/>
<path d="M22745 14170 c-3 -5 -1 -10 4 -10 6 0 11 5 11 10 0 6 -2 10 -4 10 -3
0 -8 -4 -11 -10z"/>
<path d="M23055 14169 c-4 -6 -5 -12 -2 -15 2 -3 7 2 10 11 7 17 1 20 -8 4z"/>
<path d="M24700 14170 c-12 -8 -10 -10 8 -10 13 0 20 4 17 10 -7 12 -6 12 -25
0z"/>
<path d="M24790 14170 c0 -5 5 -10 11 -10 5 0 7 5 4 10 -3 6 -8 10 -11 10 -2
0 -4 -4 -4 -10z"/>
<path d="M22660 14140 c0 -5 4 -10 9 -10 6 0 13 5 16 10 3 6 -1 10 -9 10 -9 0
-16 -4 -16 -10z"/>
<path d="M22850 14130 c0 -5 4 -10 9 -10 6 0 13 5 16 10 3 6 -1 10 -9 10 -9 0
-16 -4 -16 -10z"/>
<path d="M22700 14109 c0 -11 4 -18 10 -14 5 3 7 12 3 20 -7 21 -13 19 -13 -6z"/>
<path d="M22985 14110 c-3 -5 -1 -10 4 -10 6 0 11 5 11 10 0 6 -2 10 -4 10 -3
0 -8 -4 -11 -10z"/>
<path d="M23700 14106 c0 -9 5 -16 10 -16 6 0 10 4 10 9 0 6 -4 13 -10 16 -5
3 -10 -1 -10 -9z"/>
<path d="M24285 14110 c-3 -5 3 -10 14 -10 11 0 23 5 26 10 3 6 -3 10 -14 10
-11 0 -23 -4 -26 -10z"/>
<path d="M16020 14091 c0 -15 29 -33 41 -25 9 5 7 11 -6 21 -22 15 -35 17 -35
4z"/>
<path d="M24247 14089 c7 -7 15 -10 18 -7 3 3 -2 9 -12 12 -14 6 -15 5 -6 -5z"/>
<path d="M15965 14070 c-3 -5 -1 -10 4 -10 6 0 11 5 11 10 0 6 -2 10 -4 10 -3
0 -8 -4 -11 -10z"/>
<path d="M16076 14071 c-4 -7 -5 -15 -2 -18 9 -9 19 4 14 18 -4 11 -6 11 -12
0z"/>
<path d="M23055 14069 c-11 -16 -1 -19 13 -3 7 8 8 14 3 14 -5 0 -13 -5 -16
-11z"/>
<path d="M24101 14073 c3 -19 -2 -33 -12 -33 -5 0 -7 5 -4 10 9 15 -5 12 -22
-5 -9 -10 -12 -22 -7 -33 7 -16 7 -16 11 1 5 20 52 24 71 5 9 -9 12 -8 12 5 0
9 -4 17 -9 17 -5 0 -8 8 -7 17 0 10 -7 19 -17 21 -10 2 -17 0 -16 -5z"/>
<path d="M24213 14074 c8 -8 -18 -34 -33 -34 -7 0 -9 -7 -6 -16 4 -11 -1 -18
-14 -21 -24 -7 -27 -26 -3 -21 10 2 27 18 38 35 11 18 26 32 33 33 19 0 14 30
-5 30 -9 0 -14 -3 -10 -6z"/>
<path d="M24570 14069 c0 -5 5 -7 10 -4 6 3 10 8 10 11 0 2 -4 4 -10 4 -5 0
-10 -5 -10 -11z"/>
<path d="M24500 14066 c0 -2 7 -6 15 -10 8 -3 15 -1 15 4 0 6 -7 10 -15 10 -8
0 -15 -2 -15 -4z"/>
<path d="M16000 14050 c-7 -4 -10 -12 -6 -18 3 -6 0 -12 -6 -15 -7 -2 -10 -7
-7 -11 9 -10 40 5 33 16 -4 6 2 8 15 3 11 -3 21 -3 21 2 0 14 -36 31 -50 23z"/>
<path d="M16090 14030 c0 -5 5 -10 10 -10 6 0 10 5 10 10 0 6 -4 10 -10 10 -5
0 -10 -4 -10 -10z"/>
<path d="M24293 14024 c-17 -13 -16 -14 12 -8 37 8 39 10 21 17 -8 3 -22 -1
-33 -9z"/>
<path d="M23200 14021 c0 -5 5 -13 10 -16 6 -3 10 -2 10 4 0 5 -4 13 -10 16
-5 3 -10 2 -10 -4z"/>
<path d="M16035 13989 c-4 -5 -1 -9 5 -9 6 0 8 -5 5 -10 -4 -7 3 -8 20 -4 20
5 26 3 24 -7 -4 -22 12 -79 22 -79 5 0 9 -9 9 -20 0 -11 3 -19 8 -19 28 5 35
-2 16 -16 -14 -11 -15 -14 -4 -15 8 0 26 -3 40 -6 20 -5 23 -4 13 6 -6 7 -9
19 -6 26 3 8 0 14 -6 14 -16 0 -51 32 -51 47 0 7 7 13 15 13 11 0 12 5 6 23
-5 12 -16 21 -25 21 -10 -1 -16 6 -16 17 0 11 -3 20 -7 20 -44 7 -64 6 -68 -2z"/>
<path d="M24315 13989 c-10 -15 3 -25 16 -12 7 7 7 13 1 17 -6 3 -14 1 -17 -5z"/>
<path d="M24210 13970 c0 -5 4 -10 9 -10 6 0 13 5 16 10 3 6 -1 10 -9 10 -9 0
-16 -4 -16 -10z"/>
<path d="M24109 13933 c-25 -27 -28 -53 -8 -53 6 0 7 4 4 10 -3 5 3 20 14 32
18 19 27 38 18 38 -1 0 -14 -12 -28 -27z"/>
<path d="M16032 13920 c0 -14 2 -19 5 -12 2 6 2 18 0 25 -3 6 -5 1 -5 -13z"/>
<path d="M16063 13905 c0 -8 4 -15 9 -15 4 0 8 4 8 9 0 6 -4 12 -8 15 -5 3 -9
-1 -9 -9z"/>
<path d="M16160 13890 c0 -5 5 -10 10 -10 6 0 10 5 10 10 0 6 -4 10 -10 10 -5
0 -10 -4 -10 -10z"/>
<path d="M16020 13855 c0 -8 4 -15 10 -15 5 0 7 7 4 15 -4 8 -8 15 -10 15 -2
0 -4 -7 -4 -15z"/>
<path d="M16085 13850 c3 -5 8 -10 11 -10 2 0 4 5 4 10 0 6 -5 10 -11 10 -5 0
-7 -4 -4 -10z"/>
<path d="M16052 13821 c4 -13 18 -16 19 -4 0 4 -5 9 -11 12 -7 2 -11 -2 -8 -8z"/>
<path d="M24060 13800 c0 -5 5 -10 10 -10 6 0 10 5 10 10 0 6 -4 10 -10 10 -5
0 -10 -4 -10 -10z"/>
<path d="M16041 13784 c0 -11 3 -14 6 -6 3 7 2 16 -1 19 -3 4 -6 -2 -5 -13z"/>
<path d="M16186 13772 c-3 -6 -1 -14 5 -17 15 -10 25 3 12 16 -7 7 -13 7 -17
1z"/>
<path d="M24014 13744 c3 -9 6 -18 6 -20 0 -2 4 -4 9 -4 5 0 7 9 4 20 -3 11
-10 20 -15 20 -6 0 -7 -7 -4 -16z"/>
<path d="M16185 13724 c7 -8 21 -14 29 -14 9 0 16 -7 16 -15 0 -8 5 -15 10
-15 13 0 13 16 0 40 -6 12 -20 18 -39 18 -25 -1 -27 -3 -16 -14z"/>
<path d="M23990 13703 c0 -15 19 -37 26 -31 3 4 -1 14 -10 23 -9 9 -16 13 -16
8z"/>
<path d="M23860 13681 c12 -8 12 -11 -4 -17 -14 -5 -15 -9 -4 -15 22 -14 30
-10 26 13 -2 12 -10 23 -18 25 -13 4 -13 3 0 -6z"/>
<path d="M22515 13660 c3 -5 8 -10 11 -10 2 0 4 5 4 10 0 6 -5 10 -11 10 -5 0
-7 -4 -4 -10z"/>
<path d="M16280 13609 c0 -5 -4 -7 -10 -4 -5 3 -10 0 -10 -8 0 -10 7 -13 20
-10 20 5 29 33 10 33 -5 0 -10 -5 -10 -11z"/>
<path d="M23735 13600 c-3 -5 1 -10 9 -10 9 0 16 5 16 10 0 6 -4 10 -9 10 -6
0 -13 -4 -16 -10z"/>
<path d="M22390 13559 c0 -5 5 -7 10 -4 6 3 10 8 10 11 0 2 -4 4 -10 4 -5 0
-10 -5 -10 -11z"/>
<path d="M23290 13553 c0 -13 5 -23 10 -23 13 0 13 11 0 30 -8 12 -10 11 -10
-7z"/>
<path d="M16285 13550 c-3 -5 -1 -10 4 -10 6 0 11 5 11 10 0 6 -2 10 -4 10 -3
0 -8 -4 -11 -10z"/>
<path d="M23220 13545 c0 -9 5 -15 11 -13 6 2 11 8 11 13 0 5 -5 11 -11 13 -6
2 -11 -4 -11 -13z"/>
<path d="M23672 13544 c-7 -8 -8 -14 -3 -14 10 0 25 19 20 25 -2 1 -10 -3 -17
-11z"/>
<path d="M23538 13543 c6 -2 18 -2 25 0 6 3 1 5 -13 5 -14 0 -19 -2 -12 -5z"/>
<path d="M23798 13543 c6 -2 18 -2 25 0 6 3 1 5 -13 5 -14 0 -19 -2 -12 -5z"/>
<path d="M23200 13520 c0 -6 7 -10 15 -10 8 0 15 2 15 4 0 2 -7 6 -15 10 -8 3
-15 1 -15 -4z"/>
<path d="M23610 13515 c0 -9 6 -12 15 -9 8 4 15 7 15 9 0 2 -7 5 -15 9 -9 3
-15 0 -15 -9z"/>
<path d="M16160 13509 c0 -5 5 -7 10 -4 6 3 10 8 10 11 0 2 -4 4 -10 4 -5 0
-10 -5 -10 -11z"/>
<path d="M16256 13505 c-3 -8 -1 -15 4 -15 13 0 22 18 11 24 -5 3 -11 -1 -15
-9z"/>
<path d="M16310 13510 c0 -5 5 -10 10 -10 6 0 10 5 10 10 0 6 -4 10 -10 10 -5
0 -10 -4 -10 -10z"/>
<path d="M23063 13498 c-18 -21 -18 -21 7 -15 14 4 28 7 33 7 13 0 8 18 -7 23
-8 3 -22 -4 -33 -15z"/>
<path d="M23860 13499 c0 -5 5 -7 10 -4 6 3 10 8 10 11 0 2 -4 4 -10 4 -5 0
-10 -5 -10 -11z"/>
<path d="M23394 13488 c-5 -8 -2 -9 9 -5 10 3 17 2 17 -4 0 -6 5 -7 10 -4 6 3
10 10 10 16 0 13 -37 11 -46 -3z"/>
<path d="M23150 13480 c0 -6 7 -13 15 -17 24 -9 27 1 5 15 -13 8 -20 8 -20 2z"/>
<path d="M23527 13454 c-9 -10 2 -24 19 -24 8 0 14 7 14 15 0 15 -21 21 -33 9z"/>
<path d="M23105 13440 c-4 -6 9 -10 31 -10 42 0 42 4 2 14 -15 3 -30 2 -33 -4z"/>
<path d="M23255 13420 c-3 -5 -1 -10 4 -10 6 0 11 5 11 10 0 6 -2 10 -4 10 -3
0 -8 -4 -11 -10z"/>
<path d="M23533 13413 c9 -2 25 -2 35 0 9 3 1 5 -18 5 -19 0 -27 -2 -17 -5z"/>
<path d="M16370 13395 c-7 -8 -16 -13 -20 -10 -5 3 -11 1 -15 -5 -4 -6 6 -10
24 -10 24 0 31 4 31 20 0 24 -4 25 -20 5z"/>
<path d="M23302 13375 c0 -16 2 -22 5 -12 2 9 2 23 0 30 -3 6 -5 -1 -5 -18z"/>
<path d="M23515 13360 c3 -5 8 -10 11 -10 2 0 4 5 4 10 0 6 -5 10 -11 10 -5 0
-7 -4 -4 -10z"/>
<path d="M23240 13350 c-17 -11 -8 -23 14 -18 9 2 12 8 8 15 -5 8 -13 9 -22 3z"/>
<path d="M22870 13299 c0 -5 5 -7 10 -4 6 3 10 8 10 11 0 2 -4 4 -10 4 -5 0
-10 -5 -10 -11z"/>
<path d="M23110 13291 c0 -6 5 -13 10 -16 6 -3 10 1 10 9 0 9 -4 16 -10 16 -5
0 -10 -4 -10 -9z"/>
<path d="M23360 13280 c0 -5 7 -7 15 -4 8 4 15 8 15 10 0 2 -7 4 -15 4 -8 0
-15 -4 -15 -10z"/>
<path d="M23135 13260 c-3 -5 1 -10 9 -10 9 0 16 5 16 10 0 6 -4 10 -9 10 -6
0 -13 -4 -16 -10z"/>
<path d="M23460 13220 c0 -5 5 -10 10 -10 6 0 10 5 10 10 0 6 -4 10 -10 10 -5
0 -10 -4 -10 -10z"/>
<path d="M22990 13211 c0 -10 19 -25 25 -20 1 2 -3 10 -11 17 -8 7 -14 8 -14
3z"/>
<path d="M23160 13206 c0 -9 7 -16 16 -16 17 0 14 22 -4 28 -7 2 -12 -3 -12
-12z"/>
<path d="M23337 13213 c-4 -3 -7 -11 -7 -17 0 -6 5 -5 12 2 6 6 9 14 7 17 -3
3 -9 2 -12 -2z"/>
<path d="M23220 13200 c0 -5 5 -10 11 -10 5 0 7 5 4 10 -3 6 -8 10 -11 10 -2
0 -4 -4 -4 -10z"/>
<path d="M23437 13193 c-4 -3 -7 -11 -7 -17 0 -6 5 -5 12 2 6 6 9 14 7 17 -3
3 -9 2 -12 -2z"/>
<path d="M23280 13171 c-7 -14 -7 -22 2 -27 6 -4 14 -2 16 4 5 16 29 15 35 0
3 -7 6 -2 6 11 1 13 -2 21 -5 18 -4 -3 -15 -2 -25 3 -14 8 -21 6 -29 -9z"/>
<path d="M23380 13180 c0 -5 5 -10 10 -10 6 0 10 5 10 10 0 6 -4 10 -10 10 -5
0 -10 -4 -10 -10z"/>
<path d="M23005 13170 c3 -5 8 -10 11 -10 2 0 4 5 4 10 0 6 -5 10 -11 10 -5 0
-7 -4 -4 -10z"/>
<path d="M23034 13139 c-5 -8 -2 -11 8 -6 9 3 25 -1 37 -9 19 -14 21 -13 21 0
0 9 -6 16 -14 16 -8 0 -21 3 -29 6 -8 3 -18 0 -23 -7z"/>
<path d="M23205 13140 c3 -5 8 -10 11 -10 2 0 4 5 4 10 0 6 -5 10 -11 10 -5 0
-7 -4 -4 -10z"/>
<path d="M23015 13110 c-3 -5 -22 -10 -41 -10 -19 0 -34 -5 -34 -11 0 -5 4 -8
9 -4 5 3 12 1 16 -5 3 -5 20 -10 37 -10 24 0 28 3 19 13 -8 10 -7 17 1 25 7 7
9 12 6 12 -4 0 -10 -4 -13 -10z"/>
<path d="M23110 13110 c0 -5 4 -10 9 -10 6 0 13 5 16 10 3 6 -1 10 -9 10 -9 0
-16 -4 -16 -10z"/>
<path d="M23215 13110 c3 -5 10 -10 16 -10 5 0 9 5 9 10 0 6 -7 10 -16 10 -8
0 -12 -4 -9 -10z"/>
<path d="M23285 13090 c-3 -5 -1 -10 4 -10 6 0 11 5 11 10 0 6 -2 10 -4 10 -3
0 -8 -4 -11 -10z"/>
<path d="M23160 13065 c-10 -13 -9 -15 9 -15 11 0 21 4 21 9 0 18 -18 21 -30
6z"/>
<path d="M23220 13070 c0 -5 7 -10 15 -10 8 0 15 5 15 10 0 6 -7 10 -15 10 -8
0 -15 -4 -15 -10z"/>
<path d="M23200 13026 c0 -31 6 -34 13 -6 3 11 1 23 -4 26 -5 3 -9 -6 -9 -20z"/>
<path d="M23266 13038 c3 -5 10 -6 15 -3 13 9 11 12 -6 12 -8 0 -12 -4 -9 -9z"/>
<path d="M23065 13030 c3 -5 8 -10 11 -10 2 0 4 5 4 10 0 6 -5 10 -11 10 -5 0
-7 -4 -4 -10z"/>
<path d="M23317 13033 c-4 -3 -7 -11 -7 -17 0 -7 3 -7 8 0 4 7 16 14 27 17 19
5 19 5 -1 6 -11 0 -24 -2 -27 -6z"/>
<path d="M22794 13005 c-4 -8 -4 -22 0 -30 8 -22 -12 -18 -26 5 -14 22 -40 28
-32 7 2 -7 -5 -23 -16 -35 l-21 -22 25 0 c13 0 27 6 29 13 4 9 8 8 16 -3 5 -8
13 -11 17 -8 4 4 14 4 23 -1 9 -4 27 -5 41 0 l25 7 -28 1 c-32 1 -45 25 -29
52 16 25 15 29 -3 29 -9 0 -18 -7 -21 -15z"/>
<path d="M22945 13010 c-3 -5 1 -10 10 -10 9 0 13 5 10 10 -3 6 -8 10 -10 10
-2 0 -7 -4 -10 -10z"/>
<path d="M23090 12989 c0 -11 5 -17 10 -14 6 3 10 13 10 21 0 8 -4 14 -10 14
-5 0 -10 -9 -10 -21z"/>
<path d="M22900 12980 c0 -5 7 -10 15 -10 8 0 15 5 15 10 0 6 -7 10 -15 10 -8
0 -15 -4 -15 -10z"/>
<path d="M22597 12966 c-4 -9 4 -13 25 -14 28 -1 29 0 12 13 -24 18 -31 18
-37 1z"/>
<path d="M22966 12972 c-3 -5 1 -15 9 -22 16 -14 20 -3 6 19 -5 8 -11 9 -15 3z"/>
<path d="M22931 12956 c-11 -13 -11 -20 -3 -28 15 -15 24 -5 20 23 -3 21 -4
21 -17 5z"/>
<path d="M23100 12952 c0 -12 19 -26 26 -19 2 2 -2 10 -11 17 -9 8 -15 8 -15
2z"/>
<path d="M22675 12910 c3 -5 2 -10 -3 -10 -5 0 -9 -13 -9 -30 0 -16 4 -30 9
-30 4 0 8 9 8 19 0 13 6 19 19 18 12 -1 17 -6 13 -16 -3 -9 -1 -12 6 -7 7 4
17 -3 24 -19 8 -18 18 -25 29 -22 13 3 16 0 12 -11 -4 -10 1 -8 15 6 12 12 22
27 22 34 0 9 -3 9 -12 0 -16 -16 -28 -15 -28 3 0 8 -6 15 -14 15 -22 0 -30 19
-15 36 14 18 5 31 -13 17 -8 -6 -22 -7 -33 -2 -28 11 -37 11 -30 -1z"/>
<path d="M22880 12905 c0 -13 -4 -14 -22 -4 -18 10 -20 9 -15 -6 4 -9 7 -19 7
-21 0 -9 39 -3 46 7 5 8 9 8 14 -1 6 -10 13 -9 31 4 l23 16 -27 0 c-15 0 -27
5 -27 10 0 6 -7 10 -15 10 -8 0 -15 -7 -15 -15z"/>
<path d="M22980 12910 c0 -5 5 -10 10 -10 6 0 10 5 10 10 0 6 -4 10 -10 10 -5
0 -10 -4 -10 -10z"/>
<path d="M22770 12886 c0 -2 7 -7 16 -10 8 -3 12 -2 9 4 -6 10 -25 14 -25 6z"/>
<path d="M22620 12860 c0 -5 5 -10 11 -10 5 0 7 5 4 10 -3 6 -8 10 -11 10 -2
0 -4 -4 -4 -10z"/>
<path d="M22895 12850 c3 -5 8 -10 11 -10 2 0 4 5 4 10 0 6 -5 10 -11 10 -5 0
-7 -4 -4 -10z"/>
<path d="M22986 12851 c-5 -8 -2 -20 8 -29 17 -17 19 -9 7 22 -6 15 -10 16
-15 7z"/>
<path d="M22630 12810 c6 -11 12 -20 14 -20 2 0 2 9 -1 20 -3 11 -9 20 -15 20
-5 0 -4 -9 2 -20z"/>
<path d="M22850 12806 c0 -9 5 -16 10 -16 6 0 10 4 10 9 0 6 -4 13 -10 16 -5
3 -10 -1 -10 -9z"/>
<path d="M22690 12801 c0 -5 7 -12 16 -15 14 -5 15 -4 4 9 -14 17 -20 19 -20
6z"/>
<path d="M22661 12781 c-7 -5 -11 -15 -9 -22 3 -10 8 -7 17 9 13 24 12 26 -8
13z"/>
<path d="M22753 12748 c-12 -18 -20 -34 -17 -37 9 -9 46 36 42 52 -2 12 -9 8
-25 -15z"/>
<path d="M22890 12770 c0 -6 7 -10 15 -10 8 0 15 2 15 4 0 2 -7 6 -15 10 -8 3
-15 1 -15 -4z"/>
<path d="M22680 12750 c0 -5 5 -10 10 -10 6 0 10 5 10 10 0 6 -4 10 -10 10 -5
0 -10 -4 -10 -10z"/>
<path d="M22827 12723 c-10 -9 -8 -43 2 -43 5 0 11 11 13 25 5 24 -2 32 -15
18z"/>
<path d="M22755 12690 c4 -6 11 -8 16 -5 14 9 11 15 -7 15 -8 0 -12 -5 -9 -10z"/>
<path d="M22630 12681 c0 -5 5 -13 10 -16 6 -3 10 -2 10 4 0 5 -4 13 -10 16
-5 3 -10 2 -10 -4z"/>
<path d="M22727 12665 c-4 -8 -2 -17 3 -20 6 -4 10 3 10 14 0 25 -6 27 -13 6z"/>
<path d="M21890 12480 c0 -5 7 -10 16 -10 8 0 13 -3 11 -7 -2 -5 1 -23 7 -41
l11 -33 23 21 c22 21 31 47 12 35 -15 -9 -41 14 -33 29 3 6 3 8 -2 4 -4 -4
-16 -3 -26 3 -13 6 -19 6 -19 -1z"/>
<path d="M22189 12483 c-1 -4 0 -12 1 -18 1 -5 -2 -7 -5 -3 -11 11 -45 -10
-45 -27 0 -8 5 -15 11 -15 6 0 9 7 5 15 -6 17 19 21 29 5 4 -6 12 -4 21 5 14
13 14 17 0 31 -9 8 -17 12 -17 7z"/>
<path d="M22036 12455 c-4 -12 -1 -16 11 -13 18 3 21 20 5 26 -5 1 -12 -4 -16
-13z"/>
<path d="M22011 12424 c0 -11 3 -14 6 -6 3 7 2 16 -1 19 -3 4 -6 -2 -5 -13z"/>
<path d="M22060 12426 c0 -8 5 -18 10 -21 6 -3 10 3 10 14 0 12 -4 21 -10 21
-5 0 -10 -6 -10 -14z"/>
<path d="M21980 12386 c0 -9 5 -16 10 -16 6 0 10 4 10 9 0 6 -4 13 -10 16 -5
3 -10 -1 -10 -9z"/>
<path d="M22030 12389 c0 -5 5 -7 10 -4 6 3 10 8 10 11 0 2 -4 4 -10 4 -5 0
-10 -5 -10 -11z"/>
<path d="M21877 12339 c-9 -6 -15 -14 -12 -18 7 -12 56 0 52 12 -5 16 -20 18
-40 6z"/>
<path d="M21990 12260 c0 -6 7 -10 15 -10 8 0 15 2 15 4 0 2 -7 6 -15 10 -8 3
-15 1 -15 -4z"/>
<path d="M22433 12063 c-15 -5 -17 -23 -4 -23 5 0 11 7 15 15 3 8 4 15 3 14
-1 0 -8 -3 -14 -6z"/>
<path d="M22430 11879 c0 -5 5 -7 10 -4 6 3 10 8 10 11 0 2 -4 4 -10 4 -5 0
-10 -5 -10 -11z"/>
<path d="M22425 11840 c3 -5 8 -10 11 -10 2 0 4 5 4 10 0 6 -5 10 -11 10 -5 0
-7 -4 -4 -10z"/>
<path d="M22438 11703 c6 -2 18 -2 25 0 6 3 1 5 -13 5 -14 0 -19 -2 -12 -5z"/>
<path d="M22450 11549 c0 -5 5 -7 10 -4 6 3 10 8 10 11 0 2 -4 4 -10 4 -5 0
-10 -5 -10 -11z"/>
<path d="M22460 11360 c0 -5 5 -10 11 -10 5 0 7 5 4 10 -3 6 -8 10 -11 10 -2
0 -4 -4 -4 -10z"/>
<path d="M22485 10971 c-3 -5 -1 -12 5 -16 5 -3 10 1 10 9 0 18 -6 21 -15 7z"/>
<path d="M22505 10890 c-3 -5 -1 -10 4 -10 6 0 11 5 11 10 0 6 -2 10 -4 10 -3
0 -8 -4 -11 -10z"/>
<path d="M22515 10750 c3 -5 8 -10 11 -10 2 0 4 5 4 10 0 6 -5 10 -11 10 -5 0
-7 -4 -4 -10z"/>
<path d="M36860 10240 c-9 -6 -10 -10 -3 -10 6 0 15 5 18 10 8 12 4 12 -15 0z"/>
<path d="M22571 10224 c0 -11 3 -14 6 -6 3 7 2 16 -1 19 -3 4 -6 -2 -5 -13z"/>
<path d="M36725 10150 c-3 -5 1 -10 9 -10 9 0 16 5 16 10 0 6 -4 10 -9 10 -6
0 -13 -4 -16 -10z"/>
<path d="M22581 10078 c-1 -16 4 -28 9 -28 12 0 12 8 0 35 -8 18 -9 17 -9 -7z"/>
<path d="M22585 10010 c-3 -5 -1 -10 4 -10 6 0 11 5 11 10 0 6 -2 10 -4 10 -3
0 -8 -4 -11 -10z"/>
<path d="M18770 8539 c0 -18 2 -19 15 -9 15 12 12 30 -6 30 -5 0 -9 -10 -9
-21z"/>
<path d="M18841 8394 c0 -11 3 -14 6 -6 3 7 2 16 -1 19 -3 4 -6 -2 -5 -13z"/>
<path d="M18870 8388 c0 -7 12 -21 25 -31 22 -15 25 -16 25 -2 0 8 -7 15 -15
15 -8 0 -15 7 -15 15 0 8 -4 15 -10 15 -5 0 -10 -6 -10 -12z"/>
<path d="M18814 8333 c3 -7 -1 -10 -11 -6 -13 5 -14 3 -4 -15 14 -27 34 -39
39 -24 2 7 12 12 23 12 12 0 16 5 13 15 -4 9 0 15 10 15 9 0 16 4 16 9 0 5
-20 8 -45 7 -31 -1 -44 -5 -41 -13z"/>
<path d="M19085 8029 c-4 -6 -5 -13 -2 -16 7 -7 27 6 27 18 0 12 -17 12 -25
-2z"/>
<path d="M19040 7989 c0 -5 5 -7 10 -4 6 3 10 8 10 11 0 2 -4 4 -10 4 -5 0
-10 -5 -10 -11z"/>
<path d="M19182 7884 c2 -8 7 -14 12 -14 5 1 12 -4 17 -11 4 -8 11 -11 14 -7
9 9 -18 48 -33 48 -7 0 -12 -7 -10 -16z"/>
<path d="M19155 7860 c3 -5 8 -10 11 -10 2 0 4 5 4 10 0 6 -5 10 -11 10 -5 0
-7 -4 -4 -10z"/>
<path d="M16480 7516 c0 -2 7 -6 15 -10 8 -3 15 -1 15 4 0 6 -7 10 -15 10 -8
0 -15 -2 -15 -4z"/>
<path d="M19630 7240 c0 -5 5 -10 10 -10 6 0 10 5 10 10 0 6 -4 10 -10 10 -5
0 -10 -4 -10 -10z"/>
<path d="M16840 6940 c0 -5 5 -10 10 -10 6 0 10 5 10 10 0 6 -4 10 -10 10 -5
0 -10 -4 -10 -10z"/>
<path d="M20050 6829 c0 -5 5 -7 10 -4 6 3 10 8 10 11 0 2 -4 4 -10 4 -5 0
-10 -5 -10 -11z"/>
<path d="M20280 6480 c0 -5 5 -10 10 -10 6 0 10 5 10 10 0 6 -4 10 -10 10 -5
0 -10 -4 -10 -10z"/>
<path d="M15600 6165 c0 -8 5 -15 10 -15 6 0 10 7 10 15 0 8 -4 15 -10 15 -5
0 -10 -7 -10 -15z"/>
<path d="M22051 6094 c0 -11 3 -14 6 -6 3 7 2 16 -1 19 -3 4 -6 -2 -5 -13z"/>
<path d="M21930 6051 c0 -6 5 -13 10 -16 6 -3 10 1 10 9 0 9 -4 16 -10 16 -5
0 -10 -4 -10 -9z"/>
<path d="M22040 6050 c0 -5 7 -10 16 -10 8 0 12 5 9 10 -3 6 -10 10 -16 10 -5
0 -9 -4 -9 -10z"/>
<path d="M21885 6030 c-3 -5 1 -10 9 -10 9 0 16 -4 16 -10 0 -5 -7 -10 -15
-10 -18 0 -19 -12 -3 -28 7 -7 8 -12 2 -12 -5 0 -16 6 -22 12 -10 10 -15 10
-22 -2 -5 -8 -12 -11 -17 -7 -4 4 -2 16 5 27 6 11 8 22 3 25 -14 8 -41 -5 -41
-20 0 -20 -19 -28 -35 -15 -10 8 -19 8 -34 0 -21 -11 -29 -40 -11 -40 6 0 10
-6 10 -14 0 -10 9 -13 28 -11 15 2 30 4 34 4 3 1 8 8 10 16 2 9 8 12 17 6 10
-7 11 -13 1 -30 -10 -20 -9 -23 9 -28 12 -3 21 -12 21 -19 0 -8 5 -14 10 -14
6 0 10 5 10 10 0 6 7 10 15 10 8 0 14 -3 14 -7 -4 -23 3 -31 21 -26 11 3 20 0
20 -6 0 -6 -7 -11 -15 -11 -8 0 -15 -7 -15 -15 0 -8 7 -15 15 -15 8 0 15 -7
15 -15 0 -8 7 -15 15 -15 10 0 15 11 15 35 0 37 8 43 28 23 9 -9 12 -8 12 6 0
10 -9 20 -20 23 -16 4 -18 11 -13 31 l6 26 -27 -18 c-20 -13 -31 -15 -39 -7
-8 8 -8 11 1 11 7 0 12 7 12 16 0 8 -4 12 -10 9 -5 -3 -10 -1 -10 4 0 6 3 11
8 11 4 0 16 7 27 15 19 15 19 15 -3 31 -16 11 -21 22 -16 36 4 14 2 18 -5 14
-6 -4 -11 -2 -11 3 0 14 -17 14 -25 1z m-5 -89 c0 -6 -4 -13 -10 -16 -5 -3
-10 1 -10 9 0 9 5 16 10 16 6 0 10 -4 10 -9z"/>
<path d="M21990 5939 c0 -5 5 -7 10 -4 6 3 10 8 10 11 0 2 -4 4 -10 4 -5 0
-10 -5 -10 -11z"/>
<path d="M22113 5935 c-15 -17 -16 -25 -3 -25 5 0 14 9 20 20 12 23 1 26 -17
5z"/>
<path d="M22980 5935 c0 -8 2 -15 4 -15 2 0 6 7 10 15 3 8 1 15 -4 15 -6 0
-10 -7 -10 -15z"/>
<path d="M21961 5924 c0 -11 3 -14 6 -6 3 7 2 16 -1 19 -3 4 -6 -2 -5 -13z"/>
<path d="M22031 5819 c-1 -9 -12 -20 -26 -23 -41 -11 -24 -35 19 -27 5 1 16
-5 26 -14 14 -12 20 -13 26 -4 4 8 3 10 -4 5 -7 -4 -12 -2 -12 3 0 6 7 11 16
11 8 0 13 4 9 10 -3 5 -12 7 -19 4 -9 -3 -18 5 -24 23 -6 15 -11 21 -11 12z"/>
<path d="M22025 5710 c3 -5 15 -10 26 -10 10 0 19 -6 19 -14 0 -16 37 -32 48
-21 4 4 -1 13 -12 20 -10 8 -16 17 -13 22 3 4 -13 9 -35 11 -25 2 -37 -1 -33
-8z"/>
<path d="M22220 5639 c0 -5 5 -7 10 -4 6 3 10 8 10 11 0 2 -4 4 -10 4 -5 0
-10 -5 -10 -11z"/>
<path d="M22120 5632 c0 -4 9 -13 20 -20 22 -13 27 -3 8 16 -14 14 -28 16 -28
4z"/>
<path d="M22220 5567 c0 -20 4 -37 10 -37 5 0 7 14 3 33 -8 45 -13 47 -13 4z"/>
<path d="M16105 5510 c-3 -5 -12 -7 -20 -3 -8 3 -15 1 -15 -5 0 -6 -3 -17 -6
-25 -3 -8 2 -17 11 -21 13 -5 15 -1 10 14 -5 16 -2 20 14 20 12 0 21 7 21 15
0 17 -6 19 -15 5z"/>
<path d="M22283 5497 c-24 -11 -29 -22 -14 -31 8 -6 48 31 40 38 -2 2 -14 -1
-26 -7z"/>
<path d="M22330 5450 c0 -5 5 -10 10 -10 6 0 10 5 10 10 0 6 -4 10 -10 10 -5
0 -10 -4 -10 -10z"/>
<path d="M23430 5330 c0 -5 5 -10 11 -10 5 0 7 5 4 10 -3 6 -8 10 -11 10 -2 0
-4 -4 -4 -10z"/>
<path d="M16380 5146 c0 -9 5 -16 10 -16 6 0 10 4 10 9 0 6 -4 13 -10 16 -5 3
-10 -1 -10 -9z"/>
<path d="M16410 5150 c0 -7 9 -14 20 -17 16 -4 18 -9 9 -25 -9 -16 -8 -19 3
-16 7 3 13 18 13 34 0 22 -5 30 -23 32 -12 2 -22 -2 -22 -8z"/>
<path d="M16390 5110 c0 -5 4 -10 9 -10 6 0 13 5 16 10 3 6 -1 10 -9 10 -9 0
-16 -4 -16 -10z"/>
<path d="M16475 5099 c-10 -15 3 -25 16 -12 7 7 7 13 1 17 -6 3 -14 1 -17 -5z"/>
<path d="M16510 5085 c0 -8 -7 -15 -15 -15 -20 0 -19 -27 1 -38 15 -8 15 -10
0 -15 -16 -6 -23 -28 -8 -26 4 1 14 1 22 0 12 -1 11 -5 -4 -16 -19 -15 -19
-15 -1 -29 11 -8 20 -27 20 -42 2 -27 5 -29 43 -32 25 -2 42 -8 42 -15 0 -7 9
-13 20 -13 23 0 25 7 9 23 -8 8 -2 11 21 10 19 -1 35 3 37 11 3 8 -1 10 -12 6
-12 -5 -16 -2 -13 12 2 13 -3 19 -13 18 -11 -1 -15 5 -12 17 3 11 0 19 -6 19
-6 0 -11 7 -11 15 0 8 -4 15 -10 15 -5 0 -10 8 -10 17 0 13 -3 14 -12 5 -16
-16 -29 -15 -27 1 3 23 -13 57 -27 57 -8 0 -14 7 -14 15 0 8 -4 15 -10 15 -5
0 -10 -7 -10 -15z"/>
<path d="M16675 4824 c9 -9 19 -13 23 -10 3 4 0 11 -8 16 -24 15 -33 11 -15
-6z"/>
<path d="M16712 4803 c-1 -21 -5 -54 -8 -74 -3 -24 0 -42 9 -50 7 -8 16 -21
19 -30 7 -18 68 -24 68 -7 0 5 6 8 13 5 6 -2 23 5 36 17 l24 21 -5 -22 c-5
-17 -2 -20 11 -15 9 3 19 10 23 16 5 7 8 3 8 -8 0 -16 2 -18 13 -7 10 10 8 16
-10 28 -13 9 -23 23 -23 32 -1 20 -25 53 -33 44 -4 -3 -7 1 -7 10 0 22 -62 67
-102 73 -33 6 -34 5 -36 -33z"/>
</g>
</svg>
